G04 #@! TF.FileFunction,Copper,L2,Bot,Signal*
%FSLAX46Y46*%
G04 Gerber Fmt 4.6, Leading zero omitted, Abs format (unit mm)*
G04 Created by KiCad (PCBNEW 4.0.7) date Sun Dec 23 23:36:25 2018*
%MOMM*%
%LPD*%
G01*
G04 APERTURE LIST*
%ADD10C,0.100000*%
%ADD11C,5.400000*%
%ADD12R,1.600000X1.600000*%
%ADD13O,1.600000X1.600000*%
%ADD14R,1.727200X1.727200*%
%ADD15O,1.727200X1.727200*%
%ADD16R,2.600000X2.600000*%
%ADD17C,2.600000*%
%ADD18O,1.050000X1.500000*%
%ADD19R,1.050000X1.500000*%
%ADD20R,2.000000X1.905000*%
%ADD21O,2.000000X1.905000*%
%ADD22C,1.600000*%
%ADD23R,1.308000X1.308000*%
%ADD24R,1.800000X1.800000*%
%ADD25C,1.800000*%
%ADD26R,1.905000X2.000000*%
%ADD27O,1.905000X2.000000*%
%ADD28C,0.600000*%
%ADD29C,1.000000*%
%ADD30C,2.000000*%
%ADD31C,1.500000*%
G04 APERTURE END LIST*
D10*
D11*
X96520000Y-83566000D03*
D12*
X153670000Y-113792000D03*
D13*
X186690000Y-98552000D03*
X156210000Y-113792000D03*
X184150000Y-98552000D03*
X158750000Y-113792000D03*
X181610000Y-98552000D03*
X161290000Y-113792000D03*
X179070000Y-98552000D03*
X163830000Y-113792000D03*
X176530000Y-98552000D03*
X166370000Y-113792000D03*
X173990000Y-98552000D03*
X168910000Y-113792000D03*
X171450000Y-98552000D03*
X171450000Y-113792000D03*
X168910000Y-98552000D03*
X173990000Y-113792000D03*
X166370000Y-98552000D03*
X176530000Y-113792000D03*
X163830000Y-98552000D03*
X179070000Y-113792000D03*
X161290000Y-98552000D03*
X181610000Y-113792000D03*
X158750000Y-98552000D03*
X184150000Y-113792000D03*
X156210000Y-98552000D03*
X186690000Y-113792000D03*
X153670000Y-98552000D03*
X189230000Y-113792000D03*
X189230000Y-98552000D03*
D14*
X149860000Y-141986000D03*
D15*
X149860000Y-139446000D03*
X152400000Y-141986000D03*
X152400000Y-139446000D03*
X154940000Y-141986000D03*
X154940000Y-139446000D03*
D14*
X182880000Y-141986000D03*
D15*
X182880000Y-139446000D03*
X185420000Y-141986000D03*
X185420000Y-139446000D03*
X187960000Y-141986000D03*
X187960000Y-139446000D03*
D14*
X180340000Y-69850000D03*
D15*
X180340000Y-67310000D03*
X182880000Y-69850000D03*
X182880000Y-67310000D03*
X185420000Y-69850000D03*
X185420000Y-67310000D03*
X187960000Y-69850000D03*
X187960000Y-67310000D03*
X190500000Y-69850000D03*
X190500000Y-67310000D03*
D14*
X163576000Y-69850000D03*
D15*
X163576000Y-67310000D03*
X166116000Y-69850000D03*
X166116000Y-67310000D03*
X168656000Y-69850000D03*
X168656000Y-67310000D03*
D14*
X189992000Y-79248000D03*
D15*
X192532000Y-79248000D03*
X189992000Y-81788000D03*
X192532000Y-81788000D03*
X189992000Y-84328000D03*
X192532000Y-84328000D03*
X189992000Y-86868000D03*
X192532000Y-86868000D03*
X189992000Y-89408000D03*
X192532000Y-89408000D03*
D14*
X109982000Y-69850000D03*
D15*
X109982000Y-67310000D03*
X112522000Y-69850000D03*
X112522000Y-67310000D03*
X115062000Y-69850000D03*
X115062000Y-67310000D03*
D14*
X166370000Y-141986000D03*
D15*
X166370000Y-139446000D03*
X168910000Y-141986000D03*
X168910000Y-139446000D03*
X171450000Y-141986000D03*
X171450000Y-139446000D03*
D16*
X96520000Y-100584000D03*
D17*
X96520000Y-95504000D03*
X96520000Y-90424000D03*
D16*
X100838000Y-140716000D03*
D17*
X105918000Y-140716000D03*
X110998000Y-140716000D03*
X116078000Y-140716000D03*
X121158000Y-140716000D03*
X126238000Y-140716000D03*
X131318000Y-140716000D03*
X136398000Y-140716000D03*
D18*
X100076000Y-117348000D03*
X101346000Y-117348000D03*
D19*
X98806000Y-117348000D03*
D20*
X101092000Y-111506000D03*
D21*
X101092000Y-108966000D03*
X101092000Y-106426000D03*
D18*
X130302000Y-117348000D03*
X131572000Y-117348000D03*
D19*
X129032000Y-117348000D03*
D20*
X131064000Y-111506000D03*
D21*
X131064000Y-108966000D03*
X131064000Y-106426000D03*
D22*
X132334000Y-68072000D03*
D13*
X122174000Y-68072000D03*
D22*
X132334000Y-73152000D03*
D13*
X122174000Y-73152000D03*
D22*
X154686000Y-68072000D03*
D13*
X144526000Y-68072000D03*
D22*
X154686000Y-78232000D03*
D13*
X144526000Y-78232000D03*
D22*
X107696000Y-116586000D03*
D13*
X107696000Y-106426000D03*
D22*
X104648000Y-106426000D03*
D13*
X104648000Y-116586000D03*
D22*
X137668000Y-116586000D03*
D13*
X137668000Y-106426000D03*
D22*
X134874000Y-106426000D03*
D13*
X134874000Y-116586000D03*
D22*
X154686000Y-73152000D03*
D13*
X144526000Y-73152000D03*
D23*
X110236000Y-83566000D03*
X110236000Y-86106000D03*
X110236000Y-94234000D03*
X110236000Y-96774000D03*
X128778000Y-96774000D03*
X128778000Y-94234000D03*
X128778000Y-86106000D03*
X128778000Y-83566000D03*
D12*
X134620000Y-68072000D03*
D13*
X142240000Y-85852000D03*
X134620000Y-70612000D03*
X142240000Y-83312000D03*
X134620000Y-73152000D03*
X142240000Y-80772000D03*
X134620000Y-75692000D03*
X142240000Y-78232000D03*
X134620000Y-78232000D03*
X142240000Y-75692000D03*
X134620000Y-80772000D03*
X142240000Y-73152000D03*
X134620000Y-83312000D03*
X142240000Y-70612000D03*
X134620000Y-85852000D03*
X142240000Y-68072000D03*
D11*
X200152000Y-68834000D03*
X200152000Y-140462000D03*
X91948000Y-140462000D03*
X179832000Y-81280000D03*
X145542000Y-125222000D03*
D24*
X170434000Y-128778000D03*
D25*
X172974000Y-128778000D03*
D24*
X189738000Y-128778000D03*
D25*
X192278000Y-128778000D03*
D24*
X160782000Y-128778000D03*
D25*
X163322000Y-128778000D03*
D24*
X180086000Y-128778000D03*
D25*
X182626000Y-128778000D03*
D24*
X131572000Y-126238000D03*
D25*
X134112000Y-126238000D03*
D24*
X100076000Y-126238000D03*
D25*
X102616000Y-126238000D03*
D22*
X166878000Y-123698000D03*
D13*
X166878000Y-133858000D03*
D22*
X186182000Y-123698000D03*
D13*
X186182000Y-133858000D03*
D22*
X157226000Y-123698000D03*
D13*
X157226000Y-133858000D03*
D22*
X176530000Y-123698000D03*
D13*
X176530000Y-133858000D03*
D22*
X134112000Y-131064000D03*
D13*
X123952000Y-131064000D03*
D22*
X102616000Y-131064000D03*
D13*
X92456000Y-131064000D03*
D26*
X117602000Y-113792000D03*
D27*
X120142000Y-113792000D03*
X122682000Y-113792000D03*
D26*
X110490000Y-125476000D03*
D27*
X113030000Y-125476000D03*
X115570000Y-125476000D03*
D22*
X125476000Y-116840000D03*
D13*
X115316000Y-116840000D03*
D22*
X118110000Y-128524000D03*
D13*
X107950000Y-128524000D03*
D22*
X132334000Y-78232000D03*
D13*
X122174000Y-78232000D03*
D16*
X96520000Y-76962000D03*
D17*
X96520000Y-71882000D03*
X96520000Y-66802000D03*
D28*
X185166000Y-91948000D03*
X117348000Y-73660000D03*
X131572000Y-136398000D03*
X131572000Y-131318000D03*
X161290000Y-121920000D03*
X189738000Y-105918000D03*
X155194000Y-88900000D03*
X152146000Y-88900000D03*
X163830000Y-107950000D03*
X176530000Y-90678000D03*
X186182000Y-74930000D03*
X166370000Y-107950000D03*
X159258000Y-106172000D03*
X149860000Y-106172000D03*
X155194000Y-90424000D03*
X152146000Y-90424000D03*
X168910000Y-121412000D03*
X197358000Y-102108000D03*
X192786000Y-102108000D03*
X171450000Y-137414000D03*
X171450000Y-123190000D03*
X171450000Y-132842000D03*
X197358000Y-119634000D03*
X192786000Y-135382000D03*
X173990000Y-135890000D03*
X162814000Y-135890000D03*
X162814000Y-138684000D03*
X185420000Y-135890000D03*
X157988000Y-143256000D03*
X151638000Y-144272000D03*
X172466000Y-95504000D03*
X191516000Y-121412000D03*
X198628000Y-120904000D03*
X202946000Y-120904000D03*
X189738000Y-107950000D03*
X137668000Y-133858000D03*
X147320000Y-103378000D03*
X144018000Y-100076000D03*
X153670000Y-92710000D03*
X147320000Y-98552000D03*
X126238000Y-71628000D03*
X159766000Y-118618000D03*
X131826000Y-114554000D03*
X134874000Y-111506000D03*
X152400000Y-120142000D03*
X101854000Y-115316000D03*
X104902000Y-112268000D03*
X96774000Y-64262000D03*
X109728000Y-106426000D03*
X132842000Y-121158000D03*
X136906000Y-119634000D03*
X121920000Y-70612000D03*
X121920000Y-120142000D03*
X121920000Y-137668000D03*
X139192000Y-137668000D03*
X142240000Y-119634000D03*
X145542000Y-112522000D03*
X153416000Y-104394000D03*
D29*
X105918000Y-99314000D02*
X104832002Y-99314000D01*
X144018000Y-102616000D02*
X140716000Y-99314000D01*
X140716000Y-99314000D02*
X105918000Y-99314000D01*
X153670000Y-113792000D02*
X144018000Y-113792000D01*
X144018000Y-113792000D02*
X144018000Y-102616000D01*
X104902000Y-69850000D02*
X109982000Y-69850000D01*
X104902000Y-99244002D02*
X104902000Y-69850000D01*
X104832002Y-99314000D02*
X104902000Y-99244002D01*
X189992000Y-84328000D02*
X186690000Y-84328000D01*
X186690000Y-84328000D02*
X186690000Y-98552000D01*
X103632000Y-93218000D02*
X103632000Y-67310000D01*
X156210000Y-113792000D02*
X156210000Y-115316000D01*
X139954000Y-101092000D02*
X103632000Y-101092000D01*
X142240000Y-103378000D02*
X139954000Y-101092000D01*
X142240000Y-107950000D02*
X142240000Y-103378000D01*
X142257259Y-115315960D02*
X142240000Y-107950000D01*
X156210000Y-115316000D02*
X142257259Y-115315960D01*
X103632000Y-101092000D02*
X103632000Y-93218000D01*
X103632000Y-67310000D02*
X109982000Y-67310000D01*
X181610000Y-98552000D02*
X181610000Y-91948000D01*
X181610000Y-91948000D02*
X185166000Y-91948000D01*
X128778000Y-86106000D02*
X131572000Y-86106000D01*
X153162000Y-102108000D02*
X156210000Y-102108000D01*
X148082000Y-97028000D02*
X153162000Y-102108000D01*
X142494000Y-97028000D02*
X148082000Y-97028000D01*
X131572000Y-86106000D02*
X142494000Y-97028000D01*
X128778000Y-86106000D02*
X128778000Y-83566000D01*
X128778000Y-83566000D02*
X128778000Y-81026000D01*
X122936000Y-75184000D02*
X118872000Y-75184000D01*
X118872000Y-75184000D02*
X117348000Y-73660000D01*
X128778000Y-81026000D02*
X134366000Y-81026000D01*
X134366000Y-81026000D02*
X134620000Y-80772000D01*
X180086000Y-128778000D02*
X180086000Y-127762000D01*
X187198000Y-126238000D02*
X189738000Y-128778000D01*
X181610000Y-126238000D02*
X187198000Y-126238000D01*
X180086000Y-127762000D02*
X181610000Y-126238000D01*
X131572000Y-131318000D02*
X131572000Y-136398000D01*
X160782000Y-122428000D02*
X160782000Y-128778000D01*
X161290000Y-121920000D02*
X160782000Y-122428000D01*
X128778000Y-81026000D02*
X128778000Y-78740000D01*
X124968000Y-77216000D02*
X122936000Y-75184000D01*
X127254000Y-77216000D02*
X124968000Y-77216000D01*
X128778000Y-78740000D02*
X127254000Y-77216000D01*
X161290000Y-105918000D02*
X189738000Y-105918000D01*
X161290000Y-113792000D02*
X161290000Y-105918000D01*
X161290000Y-105918000D02*
X161290000Y-105664000D01*
X161290000Y-105664000D02*
X156210000Y-102108000D01*
X156210000Y-98552000D02*
X156210000Y-102108000D01*
X129286000Y-70612000D02*
X124714000Y-75184000D01*
X134620000Y-70612000D02*
X129286000Y-70612000D01*
X124714000Y-75184000D02*
X122936000Y-75184000D01*
X142240000Y-80772000D02*
X138938000Y-80772000D01*
X138176000Y-80010000D02*
X138176000Y-75184000D01*
X138938000Y-80772000D02*
X138176000Y-80010000D01*
X142240000Y-75692000D02*
X138684000Y-75692000D01*
X138176000Y-75184000D02*
X138176000Y-70612000D01*
X138684000Y-75692000D02*
X138176000Y-75184000D01*
X134620000Y-70612000D02*
X138176000Y-70612000D01*
X138176000Y-70612000D02*
X142240000Y-70612000D01*
X146304000Y-88900000D02*
X152146000Y-88900000D01*
X144526000Y-75438000D02*
X146304000Y-77216000D01*
X146304000Y-77216000D02*
X146304000Y-88900000D01*
X144526000Y-73152000D02*
X144526000Y-75438000D01*
X179070000Y-88900000D02*
X179070000Y-98552000D01*
X155194000Y-88900000D02*
X179070000Y-88900000D01*
X142240000Y-73152000D02*
X144526000Y-73152000D01*
X163830000Y-113792000D02*
X163830000Y-107950000D01*
X186182000Y-74930000D02*
X171196000Y-74930000D01*
X176530000Y-98552000D02*
X176530000Y-90678000D01*
X171196000Y-74930000D02*
X166116000Y-69850000D01*
X166370000Y-107950000D02*
X166370000Y-113792000D01*
X149860000Y-106172000D02*
X159258000Y-106172000D01*
X144526000Y-78232000D02*
X144526000Y-90424000D01*
X173990000Y-90424000D02*
X173990000Y-98552000D01*
X155194000Y-90424000D02*
X173990000Y-90424000D01*
X144526000Y-90424000D02*
X152146000Y-90424000D01*
X142240000Y-78232000D02*
X144526000Y-78232000D01*
X177800000Y-132588000D02*
X178816000Y-131572000D01*
X188976000Y-134366000D02*
X187198000Y-132588000D01*
X176530000Y-133858000D02*
X177800000Y-132588000D01*
X188976000Y-134366000D02*
X189992000Y-134366000D01*
X186182000Y-131572000D02*
X187198000Y-132588000D01*
X178816000Y-131572000D02*
X186182000Y-131572000D01*
X201422000Y-78232000D02*
X201422000Y-91186000D01*
X201422000Y-91186000D02*
X201422000Y-136652000D01*
X201422000Y-136652000D02*
X189992000Y-136652000D01*
X189992000Y-134366000D02*
X191262000Y-134366000D01*
X195326000Y-127254000D02*
X189484000Y-121412000D01*
X195326000Y-130302000D02*
X195326000Y-127254000D01*
X191262000Y-134366000D02*
X195326000Y-130302000D01*
X201422000Y-78232000D02*
X201422000Y-76962000D01*
X186690000Y-65532000D02*
X185420000Y-66802000D01*
X186690000Y-65532000D02*
X191516000Y-65532000D01*
X191516000Y-65532000D02*
X192532000Y-66548000D01*
X192532000Y-68072000D02*
X192532000Y-66548000D01*
X201422000Y-76962000D02*
X192532000Y-68072000D01*
X201422000Y-77908002D02*
X201422000Y-78232000D01*
X189992000Y-134366000D02*
X189992000Y-136652000D01*
X189992000Y-136652000D02*
X189992000Y-137922000D01*
X185420000Y-67310000D02*
X185420000Y-66802000D01*
X168910000Y-121412000D02*
X189484000Y-121412000D01*
X187452000Y-144272000D02*
X185420000Y-142240000D01*
X189992000Y-144272000D02*
X187452000Y-144272000D01*
X189992000Y-134366000D02*
X189992000Y-137922000D01*
X189992000Y-137922000D02*
X189992000Y-144272000D01*
X185420000Y-142240000D02*
X185420000Y-141986000D01*
X185420000Y-141986000D02*
X185420000Y-142240000D01*
X197358000Y-102108000D02*
X192786000Y-102108000D01*
X160782000Y-137414000D02*
X160782000Y-135636000D01*
X160782000Y-135636000D02*
X162560000Y-133858000D01*
X162560000Y-133858000D02*
X166878000Y-133858000D01*
X167640000Y-127000000D02*
X171450000Y-123190000D01*
X167640000Y-130556000D02*
X167640000Y-127000000D01*
X168402000Y-131318000D02*
X167640000Y-130556000D01*
X169926000Y-131318000D02*
X168402000Y-131318000D01*
X171450000Y-132842000D02*
X169926000Y-131318000D01*
X193548000Y-73406000D02*
X198951998Y-78809998D01*
X198951998Y-78809998D02*
X198951998Y-119634000D01*
X198951998Y-119634000D02*
X197358000Y-119634000D01*
X186182000Y-73406000D02*
X182880000Y-70104000D01*
X186182000Y-73406000D02*
X193548000Y-73406000D01*
X182880000Y-69850000D02*
X182880000Y-70104000D01*
X187960000Y-139446000D02*
X187960000Y-138684000D01*
X187960000Y-138684000D02*
X186690000Y-137414000D01*
X186690000Y-137414000D02*
X171450000Y-137414000D01*
X171450000Y-137414000D02*
X170942000Y-137414000D01*
X170942000Y-137414000D02*
X168910000Y-139446000D01*
X152400000Y-139446000D02*
X152400000Y-138684000D01*
X152400000Y-138684000D02*
X153670000Y-137414000D01*
X153670000Y-137414000D02*
X156972000Y-137414000D01*
X156972000Y-137414000D02*
X160782000Y-137414000D01*
X160782000Y-137414000D02*
X166878000Y-137414000D01*
X166878000Y-137414000D02*
X168910000Y-139446000D01*
X185420000Y-135890000D02*
X185420000Y-134620000D01*
X185420000Y-134620000D02*
X186182000Y-133858000D01*
X200152000Y-78486000D02*
X200152000Y-91440000D01*
X200152000Y-91440000D02*
X200152000Y-135382000D01*
X200152000Y-135382000D02*
X192786000Y-135382000D01*
X200152000Y-78486000D02*
X200152000Y-77389060D01*
X185420000Y-70866000D02*
X186690000Y-72136000D01*
X186690000Y-72136000D02*
X191516000Y-72136000D01*
X185420000Y-70866000D02*
X185420000Y-69850000D01*
X194898940Y-72136000D02*
X191516000Y-72136000D01*
X200152000Y-77389060D02*
X194898940Y-72136000D01*
X200152000Y-78416002D02*
X200152000Y-78486000D01*
X162814000Y-138684000D02*
X162814000Y-141986000D01*
X173990000Y-135890000D02*
X162814000Y-135890000D01*
X162814000Y-141986000D02*
X162560000Y-141986000D01*
X173990000Y-135890000D02*
X185420000Y-135890000D01*
X149860000Y-141986000D02*
X149860000Y-142494000D01*
X149860000Y-142494000D02*
X151638000Y-144272000D01*
X159258000Y-141986000D02*
X162560000Y-141986000D01*
X157988000Y-143256000D02*
X159258000Y-141986000D01*
X162560000Y-141986000D02*
X166370000Y-141986000D01*
X166370000Y-98552000D02*
X166370000Y-95504000D01*
X166370000Y-95504000D02*
X172466000Y-95504000D01*
X154940000Y-144526000D02*
X154940000Y-146558000D01*
X154178000Y-133858000D02*
X157226000Y-133858000D01*
X150622000Y-137414000D02*
X154178000Y-133858000D01*
X147320000Y-137414000D02*
X150622000Y-137414000D01*
X146050000Y-138684000D02*
X147320000Y-137414000D01*
X146050000Y-146558000D02*
X146050000Y-138684000D01*
X154940000Y-146558000D02*
X146050000Y-146558000D01*
X202946000Y-76708000D02*
X194056000Y-67818000D01*
X194056000Y-67818000D02*
X194056000Y-66040000D01*
X191516000Y-121412000D02*
X192024000Y-120904000D01*
X186182000Y-64008000D02*
X192024000Y-64008000D01*
X192024000Y-64008000D02*
X194056000Y-66040000D01*
X182880000Y-67310000D02*
X186182000Y-64008000D01*
X202946000Y-77470000D02*
X202946000Y-120904000D01*
X192024000Y-120904000D02*
X198628000Y-120904000D01*
X202946000Y-77470000D02*
X202946000Y-76708000D01*
X182880000Y-139446000D02*
X180848000Y-139446000D01*
X171450000Y-144526000D02*
X168910000Y-141986000D01*
X172466000Y-144526000D02*
X171450000Y-144526000D01*
X174752000Y-142240000D02*
X172466000Y-144526000D01*
X178054000Y-142240000D02*
X174752000Y-142240000D01*
X180848000Y-139446000D02*
X178054000Y-142240000D01*
X168910000Y-141986000D02*
X168910000Y-143002000D01*
X154940000Y-144526000D02*
X152400000Y-141986000D01*
X167386000Y-144526000D02*
X154940000Y-144526000D01*
X168910000Y-143002000D02*
X167386000Y-144526000D01*
X179070000Y-107950000D02*
X189738000Y-107950000D01*
X179070000Y-113792000D02*
X179070000Y-107950000D01*
X184150000Y-113792000D02*
X184150000Y-116840000D01*
X137668000Y-121920000D02*
X137668000Y-133858000D01*
X142748000Y-116840000D02*
X137668000Y-121920000D01*
X184150000Y-116840000D02*
X142748000Y-116840000D01*
X144018000Y-100076000D02*
X147320000Y-103378000D01*
X142240000Y-68072000D02*
X144526000Y-68072000D01*
X115062000Y-69850000D02*
X116586000Y-69850000D01*
X119888000Y-73152000D02*
X122174000Y-73152000D01*
X116586000Y-69850000D02*
X119888000Y-73152000D01*
X128778000Y-96774000D02*
X140208000Y-96774000D01*
X153670000Y-92710000D02*
X153670000Y-92964000D01*
X141986000Y-98552000D02*
X147320000Y-98552000D01*
X140208000Y-96774000D02*
X141986000Y-98552000D01*
X128778000Y-94234000D02*
X128778000Y-96774000D01*
X115062000Y-69850000D02*
X112522000Y-69850000D01*
X192532000Y-84328000D02*
X194564000Y-84328000D01*
X157480000Y-76454000D02*
X154686000Y-73660000D01*
X194564000Y-76454000D02*
X157480000Y-76454000D01*
X194564000Y-84328000D02*
X194564000Y-76454000D01*
X154686000Y-73660000D02*
X154686000Y-73152000D01*
X153670000Y-98552000D02*
X153670000Y-92964000D01*
X153670000Y-92964000D02*
X153670000Y-82042000D01*
X154686000Y-81026000D02*
X154686000Y-78232000D01*
X153670000Y-82042000D02*
X154686000Y-81026000D01*
X122174000Y-73152000D02*
X124714000Y-73152000D01*
X124714000Y-73152000D02*
X126238000Y-71628000D01*
X152654000Y-66040000D02*
X154686000Y-68072000D01*
X131826000Y-66040000D02*
X152654000Y-66040000D01*
X126238000Y-71628000D02*
X131826000Y-66040000D01*
X154686000Y-73152000D02*
X154686000Y-68072000D01*
X154686000Y-78232000D02*
X154686000Y-73152000D01*
X159766000Y-118618000D02*
X189230000Y-118618000D01*
X189230000Y-113792000D02*
X189230000Y-118618000D01*
X130302000Y-117348000D02*
X130302000Y-118618000D01*
X126492000Y-128524000D02*
X123952000Y-131064000D01*
X126492000Y-122428000D02*
X126492000Y-128524000D01*
X130302000Y-118618000D02*
X126492000Y-122428000D01*
X137668000Y-106426000D02*
X137668000Y-108712000D01*
X130302000Y-116078000D02*
X130302000Y-117348000D01*
X131826000Y-114554000D02*
X130302000Y-116078000D01*
X137668000Y-108712000D02*
X134874000Y-111506000D01*
X191262000Y-118872000D02*
X191262000Y-100584000D01*
X190119000Y-120015000D02*
X191262000Y-118872000D01*
X152400000Y-120142000D02*
X190119000Y-120015000D01*
X189230000Y-98552000D02*
X191262000Y-100584000D01*
X100076000Y-117348000D02*
X100076000Y-120396000D01*
X100076000Y-120396000D02*
X92456000Y-128016000D01*
X92456000Y-128016000D02*
X92456000Y-131064000D01*
X107696000Y-106426000D02*
X107696000Y-109474000D01*
X100076000Y-115316000D02*
X100076000Y-117348000D01*
X101854000Y-115316000D02*
X100076000Y-115316000D01*
X107696000Y-109474000D02*
X104902000Y-112268000D01*
X94234000Y-76962000D02*
X96520000Y-76962000D01*
X92456000Y-75184000D02*
X94234000Y-76962000D01*
X92456000Y-64262000D02*
X92456000Y-75184000D01*
X96774000Y-64262000D02*
X92456000Y-64262000D01*
X107696000Y-116586000D02*
X109474000Y-116586000D01*
X109474000Y-116586000D02*
X109728000Y-116332000D01*
X109728000Y-116332000D02*
X109728000Y-106426000D01*
X137668000Y-116586000D02*
X137668000Y-116840000D01*
X107696000Y-116586000D02*
X106934000Y-116586000D01*
X106934000Y-116586000D02*
X105156000Y-118364000D01*
X105156000Y-118364000D02*
X102362000Y-118364000D01*
X102362000Y-118364000D02*
X101346000Y-117348000D01*
D30*
X96520000Y-90424000D02*
X99060000Y-90424000D01*
X101092000Y-95758000D02*
X101092000Y-103378000D01*
X101092000Y-103378000D02*
X101346000Y-103632000D01*
X101092000Y-92456000D02*
X101092000Y-95758000D01*
X99060000Y-90424000D02*
X101092000Y-92456000D01*
X116332000Y-103632000D02*
X116078000Y-103632000D01*
X116078000Y-103632000D02*
X131064000Y-103632000D01*
X101346000Y-103632000D02*
X116078000Y-103632000D01*
X101092000Y-103632000D02*
X101346000Y-103886000D01*
X101346000Y-103886000D02*
X101346000Y-103632000D01*
X101092000Y-106426000D02*
X101092000Y-103632000D01*
X131064000Y-106426000D02*
X131064000Y-103632000D01*
D31*
X131064000Y-106426000D02*
X134874000Y-106426000D01*
D29*
X98806000Y-117348000D02*
X96266000Y-117348000D01*
X96266000Y-106426000D02*
X101092000Y-106426000D01*
X96266000Y-117348000D02*
X96266000Y-106426000D01*
D31*
X104648000Y-106426000D02*
X101092000Y-106426000D01*
D30*
X131064000Y-108966000D02*
X117602000Y-108966000D01*
X105156000Y-125476000D02*
X105156000Y-139954000D01*
X112268000Y-118364000D02*
X105156000Y-125476000D01*
X112268000Y-114300000D02*
X112268000Y-118364000D01*
X117602000Y-108966000D02*
X112268000Y-114300000D01*
X105156000Y-139954000D02*
X105918000Y-140716000D01*
X113030000Y-125476000D02*
X113030000Y-138684000D01*
X113030000Y-138684000D02*
X110998000Y-140716000D01*
D29*
X132842000Y-121158000D02*
X132080000Y-121158000D01*
X129540000Y-137414000D02*
X126238000Y-140716000D01*
X129540000Y-123698000D02*
X129540000Y-137414000D01*
X132080000Y-121158000D02*
X129540000Y-123698000D01*
X135890000Y-136144000D02*
X131318000Y-140716000D01*
X135890000Y-120650000D02*
X135890000Y-136144000D01*
X136906000Y-119634000D02*
X135890000Y-120650000D01*
D31*
X104648000Y-116586000D02*
X104648000Y-115062000D01*
X104648000Y-115062000D02*
X101092000Y-111506000D01*
X134874000Y-116586000D02*
X134874000Y-114300000D01*
X132080000Y-111506000D02*
X131064000Y-111506000D01*
X134874000Y-114300000D02*
X132080000Y-111506000D01*
D29*
X132334000Y-68072000D02*
X134620000Y-68072000D01*
X132334000Y-73152000D02*
X134620000Y-73152000D01*
X168656000Y-67310000D02*
X168656000Y-66548000D01*
X168656000Y-66548000D02*
X167386000Y-65278000D01*
X167386000Y-65278000D02*
X154178000Y-65278000D01*
X154178000Y-65278000D02*
X153416000Y-64516000D01*
X153416000Y-64516000D02*
X130810000Y-64516000D01*
X130810000Y-64516000D02*
X124714000Y-70612000D01*
X124714000Y-70612000D02*
X121920000Y-70612000D01*
X134112000Y-126238000D02*
X134112000Y-131064000D01*
X102616000Y-126238000D02*
X102616000Y-131064000D01*
X121920000Y-137668000D02*
X121920000Y-120142000D01*
X139192000Y-122682000D02*
X139192000Y-137668000D01*
X142240000Y-119634000D02*
X139192000Y-122682000D01*
X145542000Y-107950000D02*
X145542000Y-112522000D01*
X149098000Y-104394000D02*
X145542000Y-107950000D01*
X153416000Y-104394000D02*
X149098000Y-104394000D01*
D30*
X120142000Y-123952000D02*
X120142000Y-136652000D01*
X120142000Y-113792000D02*
X120142000Y-123952000D01*
X120142000Y-136652000D02*
X116078000Y-140716000D01*
D29*
X132334000Y-78232000D02*
X134620000Y-78232000D01*
M02*
