M48
;DRILL file {KiCad 4.0.7} date Sun Dec 23 23:36:22 2018
;FORMAT={-:-/ absolute / metric / decimal}
FMAT,2
METRIC,TZ
T1C0.400
T2C0.750
T3C0.800
T4C0.900
T5C1.016
T6C1.100
T7C1.300
T8C2.700
%
G90
G05
M71
T1
X96.774Y-64.262
X101.854Y-115.316
X104.902Y-112.268
X109.728Y-106.426
X117.348Y-73.66
X121.92Y-70.612
X121.92Y-120.142
X121.92Y-137.668
X126.238Y-71.628
X131.572Y-131.318
X131.572Y-136.398
X131.826Y-114.554
X132.842Y-121.158
X134.874Y-111.506
X136.906Y-119.634
X137.668Y-133.858
X139.192Y-137.668
X142.24Y-119.634
X144.018Y-100.076
X145.542Y-112.522
X147.32Y-98.552
X147.32Y-103.378
X149.86Y-106.172
X151.638Y-144.272
X152.146Y-88.9
X152.146Y-90.424
X152.4Y-120.142
X153.416Y-104.394
X153.67Y-92.71
X155.194Y-88.9
X155.194Y-90.424
X157.988Y-143.256
X159.258Y-106.172
X159.766Y-118.618
X161.29Y-121.92
X162.814Y-135.89
X162.814Y-138.684
X163.83Y-107.95
X166.37Y-107.95
X168.91Y-121.412
X171.45Y-123.19
X171.45Y-132.842
X171.45Y-137.414
X172.466Y-95.504
X173.99Y-135.89
X176.53Y-90.678
X185.166Y-91.948
X185.42Y-135.89
X186.182Y-74.93
X189.738Y-105.918
X189.738Y-107.95
X191.516Y-121.412
X192.786Y-102.108
X192.786Y-135.382
X197.358Y-102.108
X197.358Y-119.634
X198.628Y-120.904
X202.946Y-120.904
T2
X98.806Y-117.348
X100.076Y-117.348
X101.346Y-117.348
X129.032Y-117.348
X130.302Y-117.348
X131.572Y-117.348
T3
X92.456Y-131.064
X102.616Y-131.064
X104.648Y-106.426
X104.648Y-116.586
X107.696Y-106.426
X107.696Y-116.586
X107.95Y-128.524
X110.236Y-83.566
X110.236Y-86.106
X110.236Y-94.234
X110.236Y-96.774
X115.316Y-116.84
X118.11Y-128.524
X122.174Y-68.072
X122.174Y-73.152
X122.174Y-78.232
X123.952Y-131.064
X125.476Y-116.84
X128.778Y-83.566
X128.778Y-86.106
X128.778Y-94.234
X128.778Y-96.774
X132.334Y-68.072
X132.334Y-73.152
X132.334Y-78.232
X134.112Y-131.064
X134.62Y-68.072
X134.62Y-70.612
X134.62Y-73.152
X134.62Y-75.692
X134.62Y-78.232
X134.62Y-80.772
X134.62Y-83.312
X134.62Y-85.852
X134.874Y-106.426
X134.874Y-116.586
X137.668Y-106.426
X137.668Y-116.586
X142.24Y-68.072
X142.24Y-70.612
X142.24Y-73.152
X142.24Y-75.692
X142.24Y-78.232
X142.24Y-80.772
X142.24Y-83.312
X142.24Y-85.852
X144.526Y-68.072
X144.526Y-73.152
X144.526Y-78.232
X153.67Y-98.552
X153.67Y-113.792
X154.686Y-68.072
X154.686Y-73.152
X154.686Y-78.232
X156.21Y-98.552
X156.21Y-113.792
X157.226Y-123.698
X157.226Y-133.858
X158.75Y-98.552
X158.75Y-113.792
X161.29Y-98.552
X161.29Y-113.792
X163.83Y-98.552
X163.83Y-113.792
X166.37Y-98.552
X166.37Y-113.792
X166.878Y-123.698
X166.878Y-133.858
X168.91Y-98.552
X168.91Y-113.792
X171.45Y-98.552
X171.45Y-113.792
X173.99Y-98.552
X173.99Y-113.792
X176.53Y-98.552
X176.53Y-113.792
X176.53Y-123.698
X176.53Y-133.858
X179.07Y-98.552
X179.07Y-113.792
X181.61Y-98.552
X181.61Y-113.792
X184.15Y-98.552
X184.15Y-113.792
X186.182Y-123.698
X186.182Y-133.858
X186.69Y-98.552
X186.69Y-113.792
X189.23Y-98.552
X189.23Y-113.792
T4
X100.076Y-126.238
X102.616Y-126.238
X131.572Y-126.238
X134.112Y-126.238
X160.782Y-128.778
X163.322Y-128.778
X170.434Y-128.778
X172.974Y-128.778
X180.086Y-128.778
X182.626Y-128.778
X189.738Y-128.778
X192.278Y-128.778
T5
X109.982Y-67.31
X109.982Y-69.85
X112.522Y-67.31
X112.522Y-69.85
X115.062Y-67.31
X115.062Y-69.85
X149.86Y-139.446
X149.86Y-141.986
X152.4Y-139.446
X152.4Y-141.986
X154.94Y-139.446
X154.94Y-141.986
X163.576Y-67.31
X163.576Y-69.85
X166.116Y-67.31
X166.116Y-69.85
X166.37Y-139.446
X166.37Y-141.986
X168.656Y-67.31
X168.656Y-69.85
X168.91Y-139.446
X168.91Y-141.986
X171.45Y-139.446
X171.45Y-141.986
X180.34Y-67.31
X180.34Y-69.85
X182.88Y-67.31
X182.88Y-69.85
X182.88Y-139.446
X182.88Y-141.986
X185.42Y-67.31
X185.42Y-69.85
X185.42Y-139.446
X185.42Y-141.986
X187.96Y-67.31
X187.96Y-69.85
X187.96Y-139.446
X187.96Y-141.986
X189.992Y-79.248
X189.992Y-81.788
X189.992Y-84.328
X189.992Y-86.868
X189.992Y-89.408
X190.5Y-67.31
X190.5Y-69.85
X192.532Y-79.248
X192.532Y-81.788
X192.532Y-84.328
X192.532Y-86.868
X192.532Y-89.408
T6
X101.092Y-106.426
X101.092Y-108.966
X101.092Y-111.506
X110.49Y-125.476
X113.03Y-125.476
X115.57Y-125.476
X117.602Y-113.792
X120.142Y-113.792
X122.682Y-113.792
X131.064Y-106.426
X131.064Y-108.966
X131.064Y-111.506
T7
X96.52Y-66.802
X96.52Y-71.882
X96.52Y-76.962
X96.52Y-90.424
X96.52Y-95.504
X96.52Y-100.584
X100.838Y-140.716
X105.918Y-140.716
X110.998Y-140.716
X116.078Y-140.716
X121.158Y-140.716
X126.238Y-140.716
X131.318Y-140.716
X136.398Y-140.716
T8
X91.948Y-140.462
X96.52Y-83.566
X145.542Y-125.222
X179.832Y-81.28
X200.152Y-68.834
X200.152Y-140.462
T0
M30
