G04 #@! TF.FileFunction,Copper,L2,Bot,Signal*
%FSLAX46Y46*%
G04 Gerber Fmt 4.6, Leading zero omitted, Abs format (unit mm)*
G04 Created by KiCad (PCBNEW 4.0.7) date Mon Dec 24 01:26:40 2018*
%MOMM*%
%LPD*%
G01*
G04 APERTURE LIST*
%ADD10C,0.100000*%
%ADD11R,1.600000X1.600000*%
%ADD12O,1.600000X1.600000*%
%ADD13R,1.800000X1.800000*%
%ADD14C,1.800000*%
%ADD15R,1.727200X1.727200*%
%ADD16O,1.727200X1.727200*%
%ADD17R,1.700000X1.700000*%
%ADD18O,1.700000X1.700000*%
%ADD19C,1.600000*%
%ADD20C,5.400000*%
%ADD21C,0.600000*%
%ADD22C,1.000000*%
G04 APERTURE END LIST*
D10*
D11*
X91440000Y-71120000D03*
D12*
X76200000Y-38100000D03*
X91440000Y-68580000D03*
X76200000Y-40640000D03*
X91440000Y-66040000D03*
X76200000Y-43180000D03*
X91440000Y-63500000D03*
X76200000Y-45720000D03*
X91440000Y-60960000D03*
X76200000Y-48260000D03*
X91440000Y-58420000D03*
X76200000Y-50800000D03*
X91440000Y-55880000D03*
X76200000Y-53340000D03*
X91440000Y-53340000D03*
X76200000Y-55880000D03*
X91440000Y-50800000D03*
X76200000Y-58420000D03*
X91440000Y-48260000D03*
X76200000Y-60960000D03*
X91440000Y-45720000D03*
X76200000Y-63500000D03*
X91440000Y-43180000D03*
X76200000Y-66040000D03*
X91440000Y-40640000D03*
X76200000Y-68580000D03*
X91440000Y-38100000D03*
X76200000Y-71120000D03*
X91440000Y-35560000D03*
X76200000Y-35560000D03*
D13*
X75190000Y-98952000D03*
D14*
X77730000Y-98952000D03*
D15*
X47444000Y-101492000D03*
D16*
X47444000Y-104032000D03*
X44904000Y-101492000D03*
X44904000Y-104032000D03*
X42364000Y-101492000D03*
X42364000Y-104032000D03*
D17*
X92710000Y-92964000D03*
D18*
X90170000Y-92964000D03*
X87630000Y-92964000D03*
X85090000Y-92964000D03*
X82550000Y-92964000D03*
X80010000Y-92964000D03*
X77470000Y-92964000D03*
X74930000Y-92964000D03*
D17*
X43942000Y-30988000D03*
D18*
X46482000Y-30988000D03*
X49022000Y-30988000D03*
X51562000Y-30988000D03*
X54102000Y-30988000D03*
X56642000Y-30988000D03*
X59182000Y-30988000D03*
X61722000Y-30988000D03*
D17*
X68072000Y-100330000D03*
D18*
X65532000Y-100330000D03*
X62992000Y-100330000D03*
D19*
X91190000Y-98952000D03*
D12*
X81030000Y-98952000D03*
D20*
X90932000Y-104140000D03*
X38100000Y-92710000D03*
X37846000Y-33274000D03*
X81534000Y-40640000D03*
D21*
X47498000Y-38100000D03*
X50546000Y-38100000D03*
X86360000Y-53340000D03*
X84328000Y-85090000D03*
X76708000Y-85090000D03*
X84582000Y-50800000D03*
X84328000Y-82804000D03*
X76708000Y-82804000D03*
X84328000Y-87376000D03*
X76708000Y-87376000D03*
X87884000Y-69088000D03*
X67310000Y-33782000D03*
X50800000Y-35560000D03*
X85344000Y-32258000D03*
X78994000Y-32188002D03*
X64262000Y-34290000D03*
X56642000Y-34290000D03*
X84074000Y-30988000D03*
X78994000Y-30988000D03*
X63754000Y-33020000D03*
D22*
X50546000Y-38100000D02*
X47498000Y-38100000D01*
X91440000Y-60960000D02*
X91948000Y-60960000D01*
X91948000Y-60960000D02*
X93472000Y-62484000D01*
X93472000Y-62484000D02*
X93472000Y-92202000D01*
X93472000Y-92202000D02*
X92710000Y-92964000D01*
X82550000Y-92964000D02*
X82550000Y-59690000D01*
X82550000Y-59690000D02*
X76200000Y-53340000D01*
X47444000Y-104032000D02*
X54464000Y-104032000D01*
X86360000Y-83058000D02*
X86360000Y-53340000D01*
X84328000Y-85090000D02*
X86360000Y-83058000D01*
X64262000Y-97536000D02*
X76708000Y-85090000D01*
X60960000Y-97536000D02*
X64262000Y-97536000D01*
X54464000Y-104032000D02*
X60960000Y-97536000D01*
X80010000Y-92964000D02*
X80010000Y-59690000D01*
X80010000Y-59690000D02*
X76200000Y-55880000D01*
X47444000Y-101492000D02*
X54718000Y-101492000D01*
X84582000Y-82550000D02*
X84582000Y-50800000D01*
X84328000Y-82804000D02*
X84582000Y-82550000D01*
X63500000Y-96012000D02*
X76708000Y-82804000D01*
X60198000Y-96012000D02*
X63500000Y-96012000D01*
X54718000Y-101492000D02*
X60198000Y-96012000D01*
X91190000Y-98952000D02*
X85744000Y-98952000D01*
X89408000Y-50292000D02*
X91440000Y-48260000D01*
X89408000Y-82296000D02*
X89408000Y-50292000D01*
X84328000Y-87376000D02*
X89408000Y-82296000D01*
X72644000Y-91440000D02*
X76708000Y-87376000D01*
X72644000Y-94742000D02*
X72644000Y-91440000D01*
X73914000Y-96012000D02*
X72644000Y-94742000D01*
X82804000Y-96012000D02*
X73914000Y-96012000D01*
X85744000Y-98952000D02*
X82804000Y-96012000D01*
X88138000Y-45720000D02*
X91440000Y-45720000D01*
X87884000Y-45974000D02*
X88138000Y-45720000D01*
X87884000Y-69088000D02*
X87884000Y-45974000D01*
X76200000Y-63500000D02*
X77978000Y-63500000D01*
X78486000Y-89408000D02*
X74930000Y-92964000D01*
X78486000Y-64008000D02*
X78486000Y-89408000D01*
X77978000Y-63500000D02*
X78486000Y-64008000D01*
X91440000Y-43180000D02*
X90932000Y-43180000D01*
X90932000Y-43180000D02*
X81534000Y-33782000D01*
X81534000Y-33782000D02*
X67310000Y-33782000D01*
X50800000Y-35560000D02*
X49022000Y-33782000D01*
X49022000Y-33782000D02*
X46736000Y-33782000D01*
X46736000Y-33782000D02*
X46482000Y-33528000D01*
X46482000Y-33528000D02*
X46482000Y-30988000D01*
X61722000Y-30988000D02*
X63754000Y-30988000D01*
X80518000Y-29718000D02*
X91440000Y-40640000D01*
X65024000Y-29718000D02*
X80518000Y-29718000D01*
X63754000Y-30988000D02*
X65024000Y-29718000D01*
X91440000Y-38100000D02*
X91186000Y-38100000D01*
X91186000Y-38100000D02*
X85344000Y-32258000D01*
X78994000Y-32188002D02*
X78924002Y-32258000D01*
X78924002Y-32258000D02*
X66294000Y-32258000D01*
X66294000Y-32258000D02*
X64262000Y-34290000D01*
X56642000Y-34290000D02*
X56642000Y-30988000D01*
X44904000Y-101492000D02*
X44904000Y-100130000D01*
X76200000Y-81026000D02*
X76200000Y-71120000D01*
X62992000Y-94234000D02*
X76200000Y-81026000D01*
X59436000Y-94234000D02*
X62992000Y-94234000D01*
X54356000Y-99314000D02*
X59436000Y-94234000D01*
X45720000Y-99314000D02*
X54356000Y-99314000D01*
X44904000Y-100130000D02*
X45720000Y-99314000D01*
X91440000Y-35560000D02*
X90932000Y-35560000D01*
X90932000Y-35560000D02*
X86360000Y-30988000D01*
X86360000Y-30988000D02*
X84074000Y-30988000D01*
X78994000Y-30988000D02*
X65786000Y-30988000D01*
X65786000Y-30988000D02*
X63754000Y-33020000D01*
X76200000Y-35560000D02*
X75184000Y-35560000D01*
X64770000Y-36576000D02*
X59182000Y-30988000D01*
X74168000Y-36576000D02*
X64770000Y-36576000D01*
X75184000Y-35560000D02*
X74168000Y-36576000D01*
M02*
