M48
;DRILL file {KiCad 4.0.7} date Mon Dec 24 01:26:43 2018
;FORMAT={-:-/ absolute / metric / decimal}
FMAT,2
METRIC,TZ
T1C0.400
T2C0.800
T3C0.900
T4C1.000
T5C1.016
T6C2.700
%
G90
G05
M71
T1
X47.498Y-38.1
X50.546Y-38.1
X50.8Y-35.56
X56.642Y-34.29
X63.754Y-33.02
X64.262Y-34.29
X67.31Y-33.782
X76.708Y-82.804
X76.708Y-85.09
X76.708Y-87.376
X78.994Y-30.988
X78.994Y-32.188
X84.074Y-30.988
X84.328Y-82.804
X84.328Y-85.09
X84.328Y-87.376
X84.582Y-50.8
X85.344Y-32.258
X86.36Y-53.34
X87.884Y-69.088
T2
X76.2Y-35.56
X76.2Y-38.1
X76.2Y-40.64
X76.2Y-43.18
X76.2Y-45.72
X76.2Y-48.26
X76.2Y-50.8
X76.2Y-53.34
X76.2Y-55.88
X76.2Y-58.42
X76.2Y-60.96
X76.2Y-63.5
X76.2Y-66.04
X76.2Y-68.58
X76.2Y-71.12
X81.03Y-98.952
X91.19Y-98.952
X91.44Y-35.56
X91.44Y-38.1
X91.44Y-40.64
X91.44Y-43.18
X91.44Y-45.72
X91.44Y-48.26
X91.44Y-50.8
X91.44Y-53.34
X91.44Y-55.88
X91.44Y-58.42
X91.44Y-60.96
X91.44Y-63.5
X91.44Y-66.04
X91.44Y-68.58
X91.44Y-71.12
T3
X75.19Y-98.952
X77.73Y-98.952
T4
X43.942Y-30.988
X46.482Y-30.988
X49.022Y-30.988
X51.562Y-30.988
X54.102Y-30.988
X56.642Y-30.988
X59.182Y-30.988
X61.722Y-30.988
X62.992Y-100.33
X65.532Y-100.33
X68.072Y-100.33
X74.93Y-92.964
X77.47Y-92.964
X80.01Y-92.964
X82.55Y-92.964
X85.09Y-92.964
X87.63Y-92.964
X90.17Y-92.964
X92.71Y-92.964
T5
X42.364Y-101.492
X42.364Y-104.032
X44.904Y-101.492
X44.904Y-104.032
X47.444Y-101.492
X47.444Y-104.032
T6
X37.846Y-33.274
X38.1Y-92.71
X81.534Y-40.64
X90.932Y-104.14
T0
M30
