G04 #@! TF.FileFunction,Copper,L1,Top,Signal*
%FSLAX46Y46*%
G04 Gerber Fmt 4.6, Leading zero omitted, Abs format (unit mm)*
G04 Created by KiCad (PCBNEW 4.0.7) date Mon Dec 24 01:26:40 2018*
%MOMM*%
%LPD*%
G01*
G04 APERTURE LIST*
%ADD10C,0.100000*%
%ADD11R,1.600000X1.600000*%
%ADD12O,1.600000X1.600000*%
%ADD13R,1.800000X1.800000*%
%ADD14C,1.800000*%
%ADD15R,1.727200X1.727200*%
%ADD16O,1.727200X1.727200*%
%ADD17R,1.700000X1.700000*%
%ADD18O,1.700000X1.700000*%
%ADD19C,1.600000*%
%ADD20C,5.400000*%
%ADD21C,0.600000*%
%ADD22C,1.000000*%
G04 APERTURE END LIST*
D10*
D11*
X91440000Y-71120000D03*
D12*
X76200000Y-38100000D03*
X91440000Y-68580000D03*
X76200000Y-40640000D03*
X91440000Y-66040000D03*
X76200000Y-43180000D03*
X91440000Y-63500000D03*
X76200000Y-45720000D03*
X91440000Y-60960000D03*
X76200000Y-48260000D03*
X91440000Y-58420000D03*
X76200000Y-50800000D03*
X91440000Y-55880000D03*
X76200000Y-53340000D03*
X91440000Y-53340000D03*
X76200000Y-55880000D03*
X91440000Y-50800000D03*
X76200000Y-58420000D03*
X91440000Y-48260000D03*
X76200000Y-60960000D03*
X91440000Y-45720000D03*
X76200000Y-63500000D03*
X91440000Y-43180000D03*
X76200000Y-66040000D03*
X91440000Y-40640000D03*
X76200000Y-68580000D03*
X91440000Y-38100000D03*
X76200000Y-71120000D03*
X91440000Y-35560000D03*
X76200000Y-35560000D03*
D13*
X75190000Y-98952000D03*
D14*
X77730000Y-98952000D03*
D15*
X47444000Y-101492000D03*
D16*
X47444000Y-104032000D03*
X44904000Y-101492000D03*
X44904000Y-104032000D03*
X42364000Y-101492000D03*
X42364000Y-104032000D03*
D17*
X92710000Y-92964000D03*
D18*
X90170000Y-92964000D03*
X87630000Y-92964000D03*
X85090000Y-92964000D03*
X82550000Y-92964000D03*
X80010000Y-92964000D03*
X77470000Y-92964000D03*
X74930000Y-92964000D03*
D17*
X43942000Y-30988000D03*
D18*
X46482000Y-30988000D03*
X49022000Y-30988000D03*
X51562000Y-30988000D03*
X54102000Y-30988000D03*
X56642000Y-30988000D03*
X59182000Y-30988000D03*
X61722000Y-30988000D03*
D17*
X68072000Y-100330000D03*
D18*
X65532000Y-100330000D03*
X62992000Y-100330000D03*
D19*
X91190000Y-98952000D03*
D12*
X81030000Y-98952000D03*
D20*
X90932000Y-104140000D03*
X38100000Y-92710000D03*
X37846000Y-33274000D03*
X81534000Y-40640000D03*
D21*
X47498000Y-38100000D03*
X50546000Y-38100000D03*
X86360000Y-53340000D03*
X84328000Y-85090000D03*
X76708000Y-85090000D03*
X84582000Y-50800000D03*
X84328000Y-82804000D03*
X76708000Y-82804000D03*
X84328000Y-87376000D03*
X76708000Y-87376000D03*
X87884000Y-69088000D03*
X67310000Y-33782000D03*
X50800000Y-35560000D03*
X85344000Y-32258000D03*
X78994000Y-32188002D03*
X64262000Y-34290000D03*
X56642000Y-34290000D03*
X84074000Y-30988000D03*
X78994000Y-30988000D03*
X63754000Y-33020000D03*
D22*
X76200000Y-38100000D02*
X50546000Y-38100000D01*
X43942000Y-34544000D02*
X43942000Y-30988000D01*
X47498000Y-38100000D02*
X43942000Y-34544000D01*
X49022000Y-30988000D02*
X49022000Y-41402000D01*
X49022000Y-41402000D02*
X76200000Y-68580000D01*
X90170000Y-92964000D02*
X90170000Y-90932000D01*
X77470000Y-90932000D02*
X77470000Y-92964000D01*
X78486000Y-89916000D02*
X77470000Y-90932000D01*
X89154000Y-89916000D02*
X78486000Y-89916000D01*
X90170000Y-90932000D02*
X89154000Y-89916000D01*
X62992000Y-91948000D02*
X62992000Y-81788000D01*
X62992000Y-81788000D02*
X76200000Y-68580000D01*
X62992000Y-100330000D02*
X62992000Y-91948000D01*
X62992000Y-91948000D02*
X91440000Y-63500000D01*
X75190000Y-98952000D02*
X75190000Y-95244000D01*
X75190000Y-95244000D02*
X77470000Y-92964000D01*
X62992000Y-100330000D02*
X66802000Y-104140000D01*
X70002000Y-104140000D02*
X75190000Y-98952000D01*
X66802000Y-104140000D02*
X70002000Y-104140000D01*
X44904000Y-104032000D02*
X44904000Y-104848000D01*
X44904000Y-104848000D02*
X46228000Y-106172000D01*
X57150000Y-106172000D02*
X62992000Y-100330000D01*
X46228000Y-106172000D02*
X57150000Y-106172000D01*
X42364000Y-104032000D02*
X44904000Y-104032000D01*
X86360000Y-53340000D02*
X91440000Y-53340000D01*
X76708000Y-85090000D02*
X84328000Y-85090000D01*
X84582000Y-50800000D02*
X91440000Y-50800000D01*
X76708000Y-82804000D02*
X84328000Y-82804000D01*
X76708000Y-87376000D02*
X84328000Y-87376000D01*
X68072000Y-100330000D02*
X68072000Y-88900000D01*
X68072000Y-88900000D02*
X87884000Y-69088000D01*
X67310000Y-33782000D02*
X65532000Y-35560000D01*
X65532000Y-35560000D02*
X50800000Y-35560000D01*
X85344000Y-32258000D02*
X85274002Y-32188002D01*
X85274002Y-32188002D02*
X78994000Y-32188002D01*
X64262000Y-34290000D02*
X56642000Y-34290000D01*
X42364000Y-101492000D02*
X44904000Y-101492000D01*
X84074000Y-30988000D02*
X78994000Y-30988000D01*
X63754000Y-33020000D02*
X54102000Y-33020000D01*
X54102000Y-33020000D02*
X54102000Y-30988000D01*
X77730000Y-98952000D02*
X81030000Y-98952000D01*
M02*
