G04 #@! TF.FileFunction,Legend,Top*
%FSLAX46Y46*%
G04 Gerber Fmt 4.6, Leading zero omitted, Abs format (unit mm)*
G04 Created by KiCad (PCBNEW 4.0.7) date Mon Dec 24 01:26:40 2018*
%MOMM*%
%LPD*%
G01*
G04 APERTURE LIST*
%ADD10C,0.100000*%
%ADD11C,0.200000*%
%ADD12C,0.120000*%
%ADD13C,0.150000*%
G04 APERTURE END LIST*
D10*
D11*
X34000000Y-29000000D02*
X34000000Y-97000000D01*
X72000000Y-29000000D02*
X34000000Y-29000000D01*
X72000000Y-97000000D02*
X72000000Y-29000000D01*
X34000000Y-97000000D02*
X72000000Y-97000000D01*
X73968000Y-94206000D02*
X73968000Y-79206000D01*
X93968000Y-94206000D02*
X73968000Y-94206000D01*
X93968000Y-79206000D02*
X93968000Y-94206000D01*
X73968000Y-79206000D02*
X93968000Y-79206000D01*
D12*
X90170000Y-69850000D02*
X90170000Y-72390000D01*
X90170000Y-72390000D02*
X92840000Y-72390000D01*
X92840000Y-69850000D02*
X92840000Y-31620000D01*
X92840000Y-75060000D02*
X92840000Y-72390000D01*
X77470000Y-72390000D02*
X74800000Y-72390000D01*
X77470000Y-72390000D02*
X77470000Y-34290000D01*
X77470000Y-34290000D02*
X74800000Y-34290000D01*
X90170000Y-69850000D02*
X92840000Y-69850000D01*
X90170000Y-69850000D02*
X90170000Y-34290000D01*
X90170000Y-34290000D02*
X92840000Y-34290000D01*
X92840000Y-31620000D02*
X74800000Y-31620000D01*
X74800000Y-31620000D02*
X74800000Y-75060000D01*
X74800000Y-75060000D02*
X92840000Y-75060000D01*
X73900000Y-97407000D02*
X73900000Y-100497000D01*
X78960000Y-98952000D02*
G75*
G03X78960000Y-98952000I-2500000J0D01*
G01*
X79450000Y-98952462D02*
G75*
G03X73900000Y-97407170I-2990000J462D01*
G01*
X79450000Y-98951538D02*
G75*
G02X73900000Y-100496830I-2990000J-462D01*
G01*
X52794000Y-107437000D02*
X37014000Y-107437000D01*
X37014000Y-107437000D02*
X37014000Y-98087000D01*
X37014000Y-98087000D02*
X52794000Y-98087000D01*
X52794000Y-98087000D02*
X52794000Y-107437000D01*
X53044000Y-97837000D02*
X50504000Y-97837000D01*
X53044000Y-97837000D02*
X53044000Y-100377000D01*
X73600000Y-91634000D02*
X73600000Y-94294000D01*
X91440000Y-91634000D02*
X73600000Y-91634000D01*
X91440000Y-94294000D02*
X73600000Y-94294000D01*
X91440000Y-91634000D02*
X91440000Y-94294000D01*
X92710000Y-91634000D02*
X94040000Y-91634000D01*
X94040000Y-91634000D02*
X94040000Y-92964000D01*
X63052000Y-32318000D02*
X63052000Y-29658000D01*
X45212000Y-32318000D02*
X63052000Y-32318000D01*
X45212000Y-29658000D02*
X63052000Y-29658000D01*
X45212000Y-32318000D02*
X45212000Y-29658000D01*
X43942000Y-32318000D02*
X42612000Y-32318000D01*
X42612000Y-32318000D02*
X42612000Y-30988000D01*
X61662000Y-99000000D02*
X61662000Y-101660000D01*
X66802000Y-99000000D02*
X61662000Y-99000000D01*
X66802000Y-101660000D02*
X61662000Y-101660000D01*
X66802000Y-99000000D02*
X66802000Y-101660000D01*
X68072000Y-99000000D02*
X69402000Y-99000000D01*
X69402000Y-99000000D02*
X69402000Y-100330000D01*
X89380000Y-100322000D02*
X89380000Y-97582000D01*
X89380000Y-97582000D02*
X82840000Y-97582000D01*
X82840000Y-97582000D02*
X82840000Y-100322000D01*
X82840000Y-100322000D02*
X89380000Y-100322000D01*
X90150000Y-98952000D02*
X89380000Y-98952000D01*
X82070000Y-98952000D02*
X82840000Y-98952000D01*
D13*
X83105714Y-76366667D02*
X83581905Y-76366667D01*
X83010476Y-76652381D02*
X83343809Y-75652381D01*
X83677143Y-76652381D01*
X84534286Y-76652381D02*
X83962857Y-76652381D01*
X84248571Y-76652381D02*
X84248571Y-75652381D01*
X84153333Y-75795238D01*
X84058095Y-75890476D01*
X83962857Y-75938095D01*
X75721905Y-95444381D02*
X75721905Y-94444381D01*
X75960000Y-94444381D01*
X76102858Y-94492000D01*
X76198096Y-94587238D01*
X76245715Y-94682476D01*
X76293334Y-94872952D01*
X76293334Y-95015810D01*
X76245715Y-95206286D01*
X76198096Y-95301524D01*
X76102858Y-95396762D01*
X75960000Y-95444381D01*
X75721905Y-95444381D01*
X77245715Y-95444381D02*
X76674286Y-95444381D01*
X76960000Y-95444381D02*
X76960000Y-94444381D01*
X76864762Y-94587238D01*
X76769524Y-94682476D01*
X76674286Y-94730095D01*
X49744381Y-104981333D02*
X50458667Y-104981333D01*
X50601524Y-105028953D01*
X50696762Y-105124191D01*
X50744381Y-105267048D01*
X50744381Y-105362286D01*
X50744381Y-103981333D02*
X50744381Y-104552762D01*
X50744381Y-104267048D02*
X49744381Y-104267048D01*
X49887238Y-104362286D01*
X49982476Y-104457524D01*
X50030095Y-104552762D01*
X55062381Y-106877905D02*
X54062381Y-106877905D01*
X54062381Y-106496952D01*
X54110000Y-106401714D01*
X54157619Y-106354095D01*
X54252857Y-106306476D01*
X54395714Y-106306476D01*
X54490952Y-106354095D01*
X54538571Y-106401714D01*
X54586190Y-106496952D01*
X54586190Y-106877905D01*
X54395714Y-105449333D02*
X55062381Y-105449333D01*
X54395714Y-105877905D02*
X54919524Y-105877905D01*
X55014762Y-105830286D01*
X55062381Y-105735048D01*
X55062381Y-105592190D01*
X55014762Y-105496952D01*
X54967143Y-105449333D01*
X54395714Y-105116000D02*
X54395714Y-104735048D01*
X55062381Y-104973143D02*
X54205238Y-104973143D01*
X54110000Y-104925524D01*
X54062381Y-104830286D01*
X54062381Y-104735048D01*
X54395714Y-104544571D02*
X54395714Y-104163619D01*
X55062381Y-104401714D02*
X54205238Y-104401714D01*
X54110000Y-104354095D01*
X54062381Y-104258857D01*
X54062381Y-104163619D01*
X55062381Y-103830285D02*
X54395714Y-103830285D01*
X54062381Y-103830285D02*
X54110000Y-103877904D01*
X54157619Y-103830285D01*
X54110000Y-103782666D01*
X54062381Y-103830285D01*
X54157619Y-103830285D01*
X55014762Y-103401714D02*
X55062381Y-103306476D01*
X55062381Y-103116000D01*
X55014762Y-103020761D01*
X54919524Y-102973142D01*
X54871905Y-102973142D01*
X54776667Y-103020761D01*
X54729048Y-103116000D01*
X54729048Y-103258857D01*
X54681429Y-103354095D01*
X54586190Y-103401714D01*
X54538571Y-103401714D01*
X54443333Y-103354095D01*
X54395714Y-103258857D01*
X54395714Y-103116000D01*
X54443333Y-103020761D01*
X54538571Y-101449332D02*
X54586190Y-101306475D01*
X54633810Y-101258856D01*
X54729048Y-101211237D01*
X54871905Y-101211237D01*
X54967143Y-101258856D01*
X55014762Y-101306475D01*
X55062381Y-101401713D01*
X55062381Y-101782666D01*
X54062381Y-101782666D01*
X54062381Y-101449332D01*
X54110000Y-101354094D01*
X54157619Y-101306475D01*
X54252857Y-101258856D01*
X54348095Y-101258856D01*
X54443333Y-101306475D01*
X54490952Y-101354094D01*
X54538571Y-101449332D01*
X54538571Y-101782666D01*
X55062381Y-100782666D02*
X54395714Y-100782666D01*
X54586190Y-100782666D02*
X54490952Y-100735047D01*
X54443333Y-100687428D01*
X54395714Y-100592190D01*
X54395714Y-100496951D01*
X55062381Y-99735046D02*
X54538571Y-99735046D01*
X54443333Y-99782665D01*
X54395714Y-99877903D01*
X54395714Y-100068380D01*
X54443333Y-100163618D01*
X55014762Y-99735046D02*
X55062381Y-99830284D01*
X55062381Y-100068380D01*
X55014762Y-100163618D01*
X54919524Y-100211237D01*
X54824286Y-100211237D01*
X54729048Y-100163618D01*
X54681429Y-100068380D01*
X54681429Y-99830284D01*
X54633810Y-99735046D01*
X55062381Y-99258856D02*
X54395714Y-99258856D01*
X54062381Y-99258856D02*
X54110000Y-99306475D01*
X54157619Y-99258856D01*
X54110000Y-99211237D01*
X54062381Y-99258856D01*
X54157619Y-99258856D01*
X54395714Y-98782666D02*
X55062381Y-98782666D01*
X54490952Y-98782666D02*
X54443333Y-98735047D01*
X54395714Y-98639809D01*
X54395714Y-98496951D01*
X54443333Y-98401713D01*
X54538571Y-98354094D01*
X55062381Y-98354094D01*
X94492381Y-93297333D02*
X95206667Y-93297333D01*
X95349524Y-93344953D01*
X95444762Y-93440191D01*
X95492381Y-93583048D01*
X95492381Y-93678286D01*
X94587619Y-92868762D02*
X94540000Y-92821143D01*
X94492381Y-92725905D01*
X94492381Y-92487809D01*
X94540000Y-92392571D01*
X94587619Y-92344952D01*
X94682857Y-92297333D01*
X94778095Y-92297333D01*
X94920952Y-92344952D01*
X95492381Y-92916381D01*
X95492381Y-92297333D01*
X79215048Y-96152381D02*
X79215048Y-95152381D01*
X79548382Y-95866667D01*
X79881715Y-95152381D01*
X79881715Y-96152381D01*
X80357905Y-96152381D02*
X80357905Y-95152381D01*
X80738858Y-95152381D01*
X80834096Y-95200000D01*
X80881715Y-95247619D01*
X80929334Y-95342857D01*
X80929334Y-95485714D01*
X80881715Y-95580952D01*
X80834096Y-95628571D01*
X80738858Y-95676190D01*
X80357905Y-95676190D01*
X81357905Y-95152381D02*
X81357905Y-95961905D01*
X81405524Y-96057143D01*
X81453143Y-96104762D01*
X81548381Y-96152381D01*
X81738858Y-96152381D01*
X81834096Y-96104762D01*
X81881715Y-96057143D01*
X81929334Y-95961905D01*
X81929334Y-95152381D01*
X82405524Y-95771429D02*
X83167429Y-95771429D01*
X84072191Y-95152381D02*
X83881714Y-95152381D01*
X83786476Y-95200000D01*
X83738857Y-95247619D01*
X83643619Y-95390476D01*
X83596000Y-95580952D01*
X83596000Y-95961905D01*
X83643619Y-96057143D01*
X83691238Y-96104762D01*
X83786476Y-96152381D01*
X83976953Y-96152381D01*
X84072191Y-96104762D01*
X84119810Y-96057143D01*
X84167429Y-95961905D01*
X84167429Y-95723810D01*
X84119810Y-95628571D01*
X84072191Y-95580952D01*
X83976953Y-95533333D01*
X83786476Y-95533333D01*
X83691238Y-95580952D01*
X83643619Y-95628571D01*
X83596000Y-95723810D01*
X84786476Y-95152381D02*
X84881715Y-95152381D01*
X84976953Y-95200000D01*
X85024572Y-95247619D01*
X85072191Y-95342857D01*
X85119810Y-95533333D01*
X85119810Y-95771429D01*
X85072191Y-95961905D01*
X85024572Y-96057143D01*
X84976953Y-96104762D01*
X84881715Y-96152381D01*
X84786476Y-96152381D01*
X84691238Y-96104762D01*
X84643619Y-96057143D01*
X84596000Y-95961905D01*
X84548381Y-95771429D01*
X84548381Y-95533333D01*
X84596000Y-95342857D01*
X84643619Y-95247619D01*
X84691238Y-95200000D01*
X84786476Y-95152381D01*
X86024572Y-95152381D02*
X85548381Y-95152381D01*
X85500762Y-95628571D01*
X85548381Y-95580952D01*
X85643619Y-95533333D01*
X85881715Y-95533333D01*
X85976953Y-95580952D01*
X86024572Y-95628571D01*
X86072191Y-95723810D01*
X86072191Y-95961905D01*
X86024572Y-96057143D01*
X85976953Y-96104762D01*
X85881715Y-96152381D01*
X85643619Y-96152381D01*
X85548381Y-96104762D01*
X85500762Y-96057143D01*
X86691238Y-95152381D02*
X86786477Y-95152381D01*
X86881715Y-95200000D01*
X86929334Y-95247619D01*
X86976953Y-95342857D01*
X87024572Y-95533333D01*
X87024572Y-95771429D01*
X86976953Y-95961905D01*
X86929334Y-96057143D01*
X86881715Y-96104762D01*
X86786477Y-96152381D01*
X86691238Y-96152381D01*
X86596000Y-96104762D01*
X86548381Y-96057143D01*
X86500762Y-95961905D01*
X86453143Y-95771429D01*
X86453143Y-95533333D01*
X86500762Y-95342857D01*
X86548381Y-95247619D01*
X86596000Y-95200000D01*
X86691238Y-95152381D01*
X41064381Y-31321333D02*
X41778667Y-31321333D01*
X41921524Y-31368953D01*
X42016762Y-31464191D01*
X42064381Y-31607048D01*
X42064381Y-31702286D01*
X41064381Y-30940381D02*
X41064381Y-30321333D01*
X41445333Y-30654667D01*
X41445333Y-30511809D01*
X41492952Y-30416571D01*
X41540571Y-30368952D01*
X41635810Y-30321333D01*
X41873905Y-30321333D01*
X41969143Y-30368952D01*
X42016762Y-30416571D01*
X42064381Y-30511809D01*
X42064381Y-30797524D01*
X42016762Y-30892762D01*
X41969143Y-30940381D01*
X49435239Y-35250381D02*
X49101905Y-34774190D01*
X48863810Y-35250381D02*
X48863810Y-34250381D01*
X49244763Y-34250381D01*
X49340001Y-34298000D01*
X49387620Y-34345619D01*
X49435239Y-34440857D01*
X49435239Y-34583714D01*
X49387620Y-34678952D01*
X49340001Y-34726571D01*
X49244763Y-34774190D01*
X48863810Y-34774190D01*
X50197144Y-34726571D02*
X49863810Y-34726571D01*
X49863810Y-35250381D02*
X49863810Y-34250381D01*
X50340001Y-34250381D01*
X50720953Y-35250381D02*
X50720953Y-34250381D01*
X51197143Y-35250381D02*
X51197143Y-34250381D01*
X51435238Y-34250381D01*
X51578096Y-34298000D01*
X51673334Y-34393238D01*
X51720953Y-34488476D01*
X51768572Y-34678952D01*
X51768572Y-34821810D01*
X51720953Y-35012286D01*
X51673334Y-35107524D01*
X51578096Y-35202762D01*
X51435238Y-35250381D01*
X51197143Y-35250381D01*
X52197143Y-34869429D02*
X52959048Y-34869429D01*
X54006667Y-35250381D02*
X53673333Y-34774190D01*
X53435238Y-35250381D02*
X53435238Y-34250381D01*
X53816191Y-34250381D01*
X53911429Y-34298000D01*
X53959048Y-34345619D01*
X54006667Y-34440857D01*
X54006667Y-34583714D01*
X53959048Y-34678952D01*
X53911429Y-34726571D01*
X53816191Y-34774190D01*
X53435238Y-34774190D01*
X55006667Y-35155143D02*
X54959048Y-35202762D01*
X54816191Y-35250381D01*
X54720953Y-35250381D01*
X54578095Y-35202762D01*
X54482857Y-35107524D01*
X54435238Y-35012286D01*
X54387619Y-34821810D01*
X54387619Y-34678952D01*
X54435238Y-34488476D01*
X54482857Y-34393238D01*
X54578095Y-34298000D01*
X54720953Y-34250381D01*
X54816191Y-34250381D01*
X54959048Y-34298000D01*
X55006667Y-34345619D01*
X55911429Y-34250381D02*
X55435238Y-34250381D01*
X55387619Y-34726571D01*
X55435238Y-34678952D01*
X55530476Y-34631333D01*
X55768572Y-34631333D01*
X55863810Y-34678952D01*
X55911429Y-34726571D01*
X55959048Y-34821810D01*
X55959048Y-35059905D01*
X55911429Y-35155143D01*
X55863810Y-35202762D01*
X55768572Y-35250381D01*
X55530476Y-35250381D01*
X55435238Y-35202762D01*
X55387619Y-35155143D01*
X56340000Y-34345619D02*
X56387619Y-34298000D01*
X56482857Y-34250381D01*
X56720953Y-34250381D01*
X56816191Y-34298000D01*
X56863810Y-34345619D01*
X56911429Y-34440857D01*
X56911429Y-34536095D01*
X56863810Y-34678952D01*
X56292381Y-35250381D01*
X56911429Y-35250381D01*
X57292381Y-34345619D02*
X57340000Y-34298000D01*
X57435238Y-34250381D01*
X57673334Y-34250381D01*
X57768572Y-34298000D01*
X57816191Y-34345619D01*
X57863810Y-34440857D01*
X57863810Y-34536095D01*
X57816191Y-34678952D01*
X57244762Y-35250381D01*
X57863810Y-35250381D01*
X69854381Y-100663333D02*
X70568667Y-100663333D01*
X70711524Y-100710953D01*
X70806762Y-100806191D01*
X70854381Y-100949048D01*
X70854381Y-101044286D01*
X70187714Y-99758571D02*
X70854381Y-99758571D01*
X69806762Y-99996667D02*
X70521048Y-100234762D01*
X70521048Y-99615714D01*
X62516095Y-103020762D02*
X62658952Y-103068381D01*
X62897048Y-103068381D01*
X62992286Y-103020762D01*
X63039905Y-102973143D01*
X63087524Y-102877905D01*
X63087524Y-102782667D01*
X63039905Y-102687429D01*
X62992286Y-102639810D01*
X62897048Y-102592190D01*
X62706571Y-102544571D01*
X62611333Y-102496952D01*
X62563714Y-102449333D01*
X62516095Y-102354095D01*
X62516095Y-102258857D01*
X62563714Y-102163619D01*
X62611333Y-102116000D01*
X62706571Y-102068381D01*
X62944667Y-102068381D01*
X63087524Y-102116000D01*
X63516095Y-102401714D02*
X63516095Y-103401714D01*
X63516095Y-102449333D02*
X63611333Y-102401714D01*
X63801810Y-102401714D01*
X63897048Y-102449333D01*
X63944667Y-102496952D01*
X63992286Y-102592190D01*
X63992286Y-102877905D01*
X63944667Y-102973143D01*
X63897048Y-103020762D01*
X63801810Y-103068381D01*
X63611333Y-103068381D01*
X63516095Y-103020762D01*
X64801810Y-103020762D02*
X64706572Y-103068381D01*
X64516095Y-103068381D01*
X64420857Y-103020762D01*
X64373238Y-102925524D01*
X64373238Y-102544571D01*
X64420857Y-102449333D01*
X64516095Y-102401714D01*
X64706572Y-102401714D01*
X64801810Y-102449333D01*
X64849429Y-102544571D01*
X64849429Y-102639810D01*
X64373238Y-102735048D01*
X65706572Y-103068381D02*
X65706572Y-102544571D01*
X65658953Y-102449333D01*
X65563715Y-102401714D01*
X65373238Y-102401714D01*
X65278000Y-102449333D01*
X65706572Y-103020762D02*
X65611334Y-103068381D01*
X65373238Y-103068381D01*
X65278000Y-103020762D01*
X65230381Y-102925524D01*
X65230381Y-102830286D01*
X65278000Y-102735048D01*
X65373238Y-102687429D01*
X65611334Y-102687429D01*
X65706572Y-102639810D01*
X66182762Y-103068381D02*
X66182762Y-102068381D01*
X66278000Y-102687429D02*
X66563715Y-103068381D01*
X66563715Y-102401714D02*
X66182762Y-102782667D01*
X67373239Y-103020762D02*
X67278001Y-103068381D01*
X67087524Y-103068381D01*
X66992286Y-103020762D01*
X66944667Y-102925524D01*
X66944667Y-102544571D01*
X66992286Y-102449333D01*
X67087524Y-102401714D01*
X67278001Y-102401714D01*
X67373239Y-102449333D01*
X67420858Y-102544571D01*
X67420858Y-102639810D01*
X66944667Y-102735048D01*
X67849429Y-103068381D02*
X67849429Y-102401714D01*
X67849429Y-102592190D02*
X67897048Y-102496952D01*
X67944667Y-102449333D01*
X68039905Y-102401714D01*
X68135144Y-102401714D01*
X85943334Y-101774381D02*
X85610000Y-101298190D01*
X85371905Y-101774381D02*
X85371905Y-100774381D01*
X85752858Y-100774381D01*
X85848096Y-100822000D01*
X85895715Y-100869619D01*
X85943334Y-100964857D01*
X85943334Y-101107714D01*
X85895715Y-101202952D01*
X85848096Y-101250571D01*
X85752858Y-101298190D01*
X85371905Y-101298190D01*
X86895715Y-101774381D02*
X86324286Y-101774381D01*
X86610000Y-101774381D02*
X86610000Y-100774381D01*
X86514762Y-100917238D01*
X86419524Y-101012476D01*
X86324286Y-101060095D01*
X89598667Y-100892381D02*
X89265333Y-100416190D01*
X89027238Y-100892381D02*
X89027238Y-99892381D01*
X89408191Y-99892381D01*
X89503429Y-99940000D01*
X89551048Y-99987619D01*
X89598667Y-100082857D01*
X89598667Y-100225714D01*
X89551048Y-100320952D01*
X89503429Y-100368571D01*
X89408191Y-100416190D01*
X89027238Y-100416190D01*
X90027238Y-100368571D02*
X90360572Y-100368571D01*
X90503429Y-100892381D02*
X90027238Y-100892381D01*
X90027238Y-99892381D01*
X90503429Y-99892381D01*
X91265334Y-100368571D02*
X90932000Y-100368571D01*
X90932000Y-100892381D02*
X90932000Y-99892381D01*
X91408191Y-99892381D01*
X91932000Y-99892381D02*
X91932000Y-100130476D01*
X91693905Y-100035238D02*
X91932000Y-100130476D01*
X92170096Y-100035238D01*
X91789143Y-100320952D02*
X91932000Y-100130476D01*
X92074858Y-100320952D01*
X92693905Y-99892381D02*
X92693905Y-100130476D01*
X92455810Y-100035238D02*
X92693905Y-100130476D01*
X92932001Y-100035238D01*
X92551048Y-100320952D02*
X92693905Y-100130476D01*
X92836763Y-100320952D01*
X36766667Y-89462381D02*
X36433333Y-88986190D01*
X36195238Y-89462381D02*
X36195238Y-88462381D01*
X36576191Y-88462381D01*
X36671429Y-88510000D01*
X36719048Y-88557619D01*
X36766667Y-88652857D01*
X36766667Y-88795714D01*
X36719048Y-88890952D01*
X36671429Y-88938571D01*
X36576191Y-88986190D01*
X36195238Y-88986190D01*
X37195238Y-88938571D02*
X37528572Y-88938571D01*
X37671429Y-89462381D02*
X37195238Y-89462381D01*
X37195238Y-88462381D01*
X37671429Y-88462381D01*
X38433334Y-88938571D02*
X38100000Y-88938571D01*
X38100000Y-89462381D02*
X38100000Y-88462381D01*
X38576191Y-88462381D01*
X39100000Y-88462381D02*
X39100000Y-88700476D01*
X38861905Y-88605238D02*
X39100000Y-88700476D01*
X39338096Y-88605238D01*
X38957143Y-88890952D02*
X39100000Y-88700476D01*
X39242858Y-88890952D01*
X39861905Y-88462381D02*
X39861905Y-88700476D01*
X39623810Y-88605238D02*
X39861905Y-88700476D01*
X40100001Y-88605238D01*
X39719048Y-88890952D02*
X39861905Y-88700476D01*
X40004763Y-88890952D01*
X36512667Y-30026381D02*
X36179333Y-29550190D01*
X35941238Y-30026381D02*
X35941238Y-29026381D01*
X36322191Y-29026381D01*
X36417429Y-29074000D01*
X36465048Y-29121619D01*
X36512667Y-29216857D01*
X36512667Y-29359714D01*
X36465048Y-29454952D01*
X36417429Y-29502571D01*
X36322191Y-29550190D01*
X35941238Y-29550190D01*
X36941238Y-29502571D02*
X37274572Y-29502571D01*
X37417429Y-30026381D02*
X36941238Y-30026381D01*
X36941238Y-29026381D01*
X37417429Y-29026381D01*
X38179334Y-29502571D02*
X37846000Y-29502571D01*
X37846000Y-30026381D02*
X37846000Y-29026381D01*
X38322191Y-29026381D01*
X38846000Y-29026381D02*
X38846000Y-29264476D01*
X38607905Y-29169238D02*
X38846000Y-29264476D01*
X39084096Y-29169238D01*
X38703143Y-29454952D02*
X38846000Y-29264476D01*
X38988858Y-29454952D01*
X39607905Y-29026381D02*
X39607905Y-29264476D01*
X39369810Y-29169238D02*
X39607905Y-29264476D01*
X39846001Y-29169238D01*
X39465048Y-29454952D02*
X39607905Y-29264476D01*
X39750763Y-29454952D01*
X80200667Y-37392381D02*
X79867333Y-36916190D01*
X79629238Y-37392381D02*
X79629238Y-36392381D01*
X80010191Y-36392381D01*
X80105429Y-36440000D01*
X80153048Y-36487619D01*
X80200667Y-36582857D01*
X80200667Y-36725714D01*
X80153048Y-36820952D01*
X80105429Y-36868571D01*
X80010191Y-36916190D01*
X79629238Y-36916190D01*
X80629238Y-36868571D02*
X80962572Y-36868571D01*
X81105429Y-37392381D02*
X80629238Y-37392381D01*
X80629238Y-36392381D01*
X81105429Y-36392381D01*
X81867334Y-36868571D02*
X81534000Y-36868571D01*
X81534000Y-37392381D02*
X81534000Y-36392381D01*
X82010191Y-36392381D01*
X82534000Y-36392381D02*
X82534000Y-36630476D01*
X82295905Y-36535238D02*
X82534000Y-36630476D01*
X82772096Y-36535238D01*
X82391143Y-36820952D02*
X82534000Y-36630476D01*
X82676858Y-36820952D01*
X83295905Y-36392381D02*
X83295905Y-36630476D01*
X83057810Y-36535238D02*
X83295905Y-36630476D01*
X83534001Y-36535238D01*
X83153048Y-36820952D02*
X83295905Y-36630476D01*
X83438763Y-36820952D01*
M02*
