G04 #@! TF.FileFunction,Soldermask,Bot*
%FSLAX46Y46*%
G04 Gerber Fmt 4.6, Leading zero omitted, Abs format (unit mm)*
G04 Created by KiCad (PCBNEW 4.0.7) date Mon Dec 17 23:28:13 2018*
%MOMM*%
%LPD*%
G01*
G04 APERTURE LIST*
%ADD10C,0.100000*%
%ADD11C,5.400000*%
%ADD12R,1.700000X1.700000*%
%ADD13O,1.700000X1.700000*%
%ADD14R,2.000000X1.905000*%
%ADD15O,2.000000X1.905000*%
%ADD16C,2.400000*%
%ADD17O,2.400000X2.400000*%
%ADD18R,1.727200X1.727200*%
%ADD19O,1.727200X1.727200*%
%ADD20R,2.600000X2.600000*%
%ADD21C,2.600000*%
G04 APERTURE END LIST*
D10*
D11*
X158242000Y-132588000D03*
X221996000Y-107188000D03*
X221996000Y-132588000D03*
D12*
X214884000Y-114808000D03*
D13*
X214884000Y-117348000D03*
X214884000Y-119888000D03*
X214884000Y-122428000D03*
X214884000Y-124968000D03*
D14*
X170180000Y-118110000D03*
D15*
X170180000Y-115570000D03*
X170180000Y-113030000D03*
D14*
X181610000Y-118110000D03*
D15*
X181610000Y-115570000D03*
X181610000Y-113030000D03*
D14*
X204470000Y-118110000D03*
D15*
X204470000Y-115570000D03*
X204470000Y-113030000D03*
D14*
X193040000Y-118110000D03*
D15*
X193040000Y-115570000D03*
X193040000Y-113030000D03*
D16*
X175260000Y-125730000D03*
D17*
X175260000Y-113030000D03*
D16*
X186690000Y-125730000D03*
D17*
X186690000Y-113030000D03*
D16*
X209550000Y-125730000D03*
D17*
X209550000Y-113030000D03*
D16*
X198120000Y-125730000D03*
D17*
X198120000Y-113030000D03*
D11*
X158242000Y-105664000D03*
D18*
X201676000Y-131572000D03*
D19*
X201676000Y-134112000D03*
X199136000Y-131572000D03*
X199136000Y-134112000D03*
X196596000Y-131572000D03*
X196596000Y-134112000D03*
D12*
X220980000Y-114808000D03*
D13*
X220980000Y-117348000D03*
X220980000Y-119888000D03*
X220980000Y-122428000D03*
X220980000Y-124968000D03*
D12*
X227076000Y-114808000D03*
D13*
X227076000Y-117348000D03*
X227076000Y-119888000D03*
X227076000Y-122428000D03*
X227076000Y-124968000D03*
D20*
X160528000Y-123190000D03*
D21*
X160528000Y-118110000D03*
X160528000Y-113030000D03*
D18*
X170688000Y-134112000D03*
D19*
X170688000Y-131572000D03*
X173228000Y-134112000D03*
X173228000Y-131572000D03*
X175768000Y-134112000D03*
X175768000Y-131572000D03*
X178308000Y-134112000D03*
X178308000Y-131572000D03*
X180848000Y-134112000D03*
X180848000Y-131572000D03*
M02*
