G04 #@! TF.FileFunction,Copper,L1,Top,Signal*
%FSLAX46Y46*%
G04 Gerber Fmt 4.6, Leading zero omitted, Abs format (unit mm)*
G04 Created by KiCad (PCBNEW 4.0.7) date Mon Dec 17 23:28:13 2018*
%MOMM*%
%LPD*%
G01*
G04 APERTURE LIST*
%ADD10C,0.100000*%
%ADD11C,0.300000*%
%ADD12C,5.400000*%
%ADD13R,1.700000X1.700000*%
%ADD14O,1.700000X1.700000*%
%ADD15R,2.000000X1.905000*%
%ADD16O,2.000000X1.905000*%
%ADD17C,2.400000*%
%ADD18O,2.400000X2.400000*%
%ADD19R,1.727200X1.727200*%
%ADD20O,1.727200X1.727200*%
%ADD21R,2.600000X2.600000*%
%ADD22C,2.600000*%
%ADD23C,0.600000*%
%ADD24C,1.000000*%
G04 APERTURE END LIST*
D10*
D11*
X157956571Y-127904857D02*
X159480381Y-127904857D01*
X158718476Y-128666762D02*
X158718476Y-127142952D01*
X161385142Y-126666762D02*
X160432761Y-126666762D01*
X160337523Y-127619143D01*
X160432761Y-127523905D01*
X160623238Y-127428667D01*
X161099428Y-127428667D01*
X161289904Y-127523905D01*
X161385142Y-127619143D01*
X161480381Y-127809619D01*
X161480381Y-128285810D01*
X161385142Y-128476286D01*
X161289904Y-128571524D01*
X161099428Y-128666762D01*
X160623238Y-128666762D01*
X160432761Y-128571524D01*
X160337523Y-128476286D01*
X162051809Y-126666762D02*
X162718476Y-128666762D01*
X163385143Y-126666762D01*
X181040000Y-105426762D02*
X180373333Y-104474381D01*
X179897142Y-105426762D02*
X179897142Y-103426762D01*
X180659047Y-103426762D01*
X180849523Y-103522000D01*
X180944762Y-103617238D01*
X181040000Y-103807714D01*
X181040000Y-104093429D01*
X180944762Y-104283905D01*
X180849523Y-104379143D01*
X180659047Y-104474381D01*
X179897142Y-104474381D01*
X182944762Y-103522000D02*
X182754285Y-103426762D01*
X182468571Y-103426762D01*
X182182857Y-103522000D01*
X181992381Y-103712476D01*
X181897142Y-103902952D01*
X181801904Y-104283905D01*
X181801904Y-104569619D01*
X181897142Y-104950571D01*
X181992381Y-105141048D01*
X182182857Y-105331524D01*
X182468571Y-105426762D01*
X182659047Y-105426762D01*
X182944762Y-105331524D01*
X183040000Y-105236286D01*
X183040000Y-104569619D01*
X182659047Y-104569619D01*
X184563809Y-104379143D02*
X184849523Y-104474381D01*
X184944762Y-104569619D01*
X185040000Y-104760095D01*
X185040000Y-105045810D01*
X184944762Y-105236286D01*
X184849523Y-105331524D01*
X184659047Y-105426762D01*
X183897142Y-105426762D01*
X183897142Y-103426762D01*
X184563809Y-103426762D01*
X184754285Y-103522000D01*
X184849523Y-103617238D01*
X184944762Y-103807714D01*
X184944762Y-103998190D01*
X184849523Y-104188667D01*
X184754285Y-104283905D01*
X184563809Y-104379143D01*
X183897142Y-104379143D01*
X185706666Y-103426762D02*
X186182857Y-105426762D01*
X186563809Y-103998190D01*
X186944762Y-105426762D01*
X187420952Y-103426762D01*
X190659047Y-105426762D02*
X189706666Y-105426762D01*
X189706666Y-103426762D01*
X191325714Y-104379143D02*
X191992381Y-104379143D01*
X192278095Y-105426762D02*
X191325714Y-105426762D01*
X191325714Y-103426762D01*
X192278095Y-103426762D01*
X193135238Y-105426762D02*
X193135238Y-103426762D01*
X193611429Y-103426762D01*
X193897143Y-103522000D01*
X194087619Y-103712476D01*
X194182858Y-103902952D01*
X194278096Y-104283905D01*
X194278096Y-104569619D01*
X194182858Y-104950571D01*
X194087619Y-105141048D01*
X193897143Y-105331524D01*
X193611429Y-105426762D01*
X193135238Y-105426762D01*
X196659048Y-105426762D02*
X196659048Y-103426762D01*
X197135239Y-103426762D01*
X197420953Y-103522000D01*
X197611429Y-103712476D01*
X197706668Y-103902952D01*
X197801906Y-104283905D01*
X197801906Y-104569619D01*
X197706668Y-104950571D01*
X197611429Y-105141048D01*
X197420953Y-105331524D01*
X197135239Y-105426762D01*
X196659048Y-105426762D01*
X199801906Y-105426762D02*
X199135239Y-104474381D01*
X198659048Y-105426762D02*
X198659048Y-103426762D01*
X199420953Y-103426762D01*
X199611429Y-103522000D01*
X199706668Y-103617238D01*
X199801906Y-103807714D01*
X199801906Y-104093429D01*
X199706668Y-104283905D01*
X199611429Y-104379143D01*
X199420953Y-104474381D01*
X198659048Y-104474381D01*
X200659048Y-105426762D02*
X200659048Y-103426762D01*
X201325715Y-103426762D02*
X201992382Y-105426762D01*
X202659049Y-103426762D01*
X203325715Y-104379143D02*
X203992382Y-104379143D01*
X204278096Y-105426762D02*
X203325715Y-105426762D01*
X203325715Y-103426762D01*
X204278096Y-103426762D01*
X206278097Y-105426762D02*
X205611430Y-104474381D01*
X205135239Y-105426762D02*
X205135239Y-103426762D01*
X205897144Y-103426762D01*
X206087620Y-103522000D01*
X206182859Y-103617238D01*
X206278097Y-103807714D01*
X206278097Y-104093429D01*
X206182859Y-104283905D01*
X206087620Y-104379143D01*
X205897144Y-104474381D01*
X205135239Y-104474381D01*
X174754285Y-108155333D02*
X175706666Y-108155333D01*
X174563809Y-108726762D02*
X175230476Y-106726762D01*
X175897143Y-108726762D01*
X176563809Y-108726762D02*
X176563809Y-106726762D01*
X177706667Y-108726762D01*
X177706667Y-106726762D01*
X178659047Y-108726762D02*
X178659047Y-106726762D01*
X179135238Y-106726762D01*
X179420952Y-106822000D01*
X179611428Y-107012476D01*
X179706667Y-107202952D01*
X179801905Y-107583905D01*
X179801905Y-107869619D01*
X179706667Y-108250571D01*
X179611428Y-108441048D01*
X179420952Y-108631524D01*
X179135238Y-108726762D01*
X178659047Y-108726762D01*
X180659047Y-108726762D02*
X180659047Y-106726762D01*
X181611428Y-107679143D02*
X182278095Y-107679143D01*
X182563809Y-108726762D02*
X181611428Y-108726762D01*
X181611428Y-106726762D01*
X182563809Y-106726762D01*
X183420952Y-108726762D02*
X183420952Y-106726762D01*
X183420952Y-107679143D02*
X184563810Y-107679143D01*
X184563810Y-108726762D02*
X184563810Y-106726762D01*
X186754286Y-106726762D02*
X187420953Y-108726762D01*
X188087620Y-106726762D01*
X188754286Y-108536286D02*
X188849525Y-108631524D01*
X188754286Y-108726762D01*
X188659048Y-108631524D01*
X188754286Y-108536286D01*
X188754286Y-108726762D01*
X190087620Y-106726762D02*
X190278096Y-106726762D01*
X190468572Y-106822000D01*
X190563810Y-106917238D01*
X190659048Y-107107714D01*
X190754287Y-107488667D01*
X190754287Y-107964857D01*
X190659048Y-108345810D01*
X190563810Y-108536286D01*
X190468572Y-108631524D01*
X190278096Y-108726762D01*
X190087620Y-108726762D01*
X189897144Y-108631524D01*
X189801906Y-108536286D01*
X189706667Y-108345810D01*
X189611429Y-107964857D01*
X189611429Y-107488667D01*
X189706667Y-107107714D01*
X189801906Y-106917238D01*
X189897144Y-106822000D01*
X190087620Y-106726762D01*
X191611429Y-108536286D02*
X191706668Y-108631524D01*
X191611429Y-108726762D01*
X191516191Y-108631524D01*
X191611429Y-108536286D01*
X191611429Y-108726762D01*
X192468572Y-106917238D02*
X192563810Y-106822000D01*
X192754287Y-106726762D01*
X193230477Y-106726762D01*
X193420953Y-106822000D01*
X193516191Y-106917238D01*
X193611430Y-107107714D01*
X193611430Y-107298190D01*
X193516191Y-107583905D01*
X192373334Y-108726762D01*
X193611430Y-108726762D01*
X196563811Y-109488667D02*
X196468573Y-109393429D01*
X196278097Y-109107714D01*
X196182859Y-108917238D01*
X196087621Y-108631524D01*
X195992382Y-108155333D01*
X195992382Y-107774381D01*
X196087621Y-107298190D01*
X196182859Y-107012476D01*
X196278097Y-106822000D01*
X196468573Y-106536286D01*
X196563811Y-106441048D01*
X198373335Y-108726762D02*
X197230477Y-108726762D01*
X197801906Y-108726762D02*
X197801906Y-106726762D01*
X197611430Y-107012476D01*
X197420954Y-107202952D01*
X197230477Y-107298190D01*
X199135239Y-106917238D02*
X199230477Y-106822000D01*
X199420954Y-106726762D01*
X199897144Y-106726762D01*
X200087620Y-106822000D01*
X200182858Y-106917238D01*
X200278097Y-107107714D01*
X200278097Y-107298190D01*
X200182858Y-107583905D01*
X199040001Y-108726762D01*
X200278097Y-108726762D01*
X202563811Y-106631524D02*
X200849525Y-109202952D01*
X203135239Y-106917238D02*
X203230477Y-106822000D01*
X203420954Y-106726762D01*
X203897144Y-106726762D01*
X204087620Y-106822000D01*
X204182858Y-106917238D01*
X204278097Y-107107714D01*
X204278097Y-107298190D01*
X204182858Y-107583905D01*
X203040001Y-108726762D01*
X204278097Y-108726762D01*
X205516192Y-106726762D02*
X205706668Y-106726762D01*
X205897144Y-106822000D01*
X205992382Y-106917238D01*
X206087620Y-107107714D01*
X206182859Y-107488667D01*
X206182859Y-107964857D01*
X206087620Y-108345810D01*
X205992382Y-108536286D01*
X205897144Y-108631524D01*
X205706668Y-108726762D01*
X205516192Y-108726762D01*
X205325716Y-108631524D01*
X205230478Y-108536286D01*
X205135239Y-108345810D01*
X205040001Y-107964857D01*
X205040001Y-107488667D01*
X205135239Y-107107714D01*
X205230478Y-106917238D01*
X205325716Y-106822000D01*
X205516192Y-106726762D01*
X208087621Y-108726762D02*
X206944763Y-108726762D01*
X207516192Y-108726762D02*
X207516192Y-106726762D01*
X207325716Y-107012476D01*
X207135240Y-107202952D01*
X206944763Y-107298190D01*
X209230478Y-107583905D02*
X209040002Y-107488667D01*
X208944763Y-107393429D01*
X208849525Y-107202952D01*
X208849525Y-107107714D01*
X208944763Y-106917238D01*
X209040002Y-106822000D01*
X209230478Y-106726762D01*
X209611430Y-106726762D01*
X209801906Y-106822000D01*
X209897144Y-106917238D01*
X209992383Y-107107714D01*
X209992383Y-107202952D01*
X209897144Y-107393429D01*
X209801906Y-107488667D01*
X209611430Y-107583905D01*
X209230478Y-107583905D01*
X209040002Y-107679143D01*
X208944763Y-107774381D01*
X208849525Y-107964857D01*
X208849525Y-108345810D01*
X208944763Y-108536286D01*
X209040002Y-108631524D01*
X209230478Y-108726762D01*
X209611430Y-108726762D01*
X209801906Y-108631524D01*
X209897144Y-108536286D01*
X209992383Y-108345810D01*
X209992383Y-107964857D01*
X209897144Y-107774381D01*
X209801906Y-107679143D01*
X209611430Y-107583905D01*
X210659049Y-109488667D02*
X210754287Y-109393429D01*
X210944764Y-109107714D01*
X211040002Y-108917238D01*
X211135240Y-108631524D01*
X211230478Y-108155333D01*
X211230478Y-107774381D01*
X211135240Y-107298190D01*
X211040002Y-107012476D01*
X210944764Y-106822000D01*
X210754287Y-106536286D01*
X210659049Y-106441048D01*
X162814191Y-107712000D02*
X162623714Y-107616762D01*
X162338000Y-107616762D01*
X162052286Y-107712000D01*
X161861810Y-107902476D01*
X161766571Y-108092952D01*
X161671333Y-108473905D01*
X161671333Y-108759619D01*
X161766571Y-109140571D01*
X161861810Y-109331048D01*
X162052286Y-109521524D01*
X162338000Y-109616762D01*
X162528476Y-109616762D01*
X162814191Y-109521524D01*
X162909429Y-109426286D01*
X162909429Y-108759619D01*
X162528476Y-108759619D01*
X163766571Y-109616762D02*
X163766571Y-107616762D01*
X164909429Y-109616762D01*
X164909429Y-107616762D01*
X165861809Y-109616762D02*
X165861809Y-107616762D01*
X166338000Y-107616762D01*
X166623714Y-107712000D01*
X166814190Y-107902476D01*
X166909429Y-108092952D01*
X167004667Y-108473905D01*
X167004667Y-108759619D01*
X166909429Y-109140571D01*
X166814190Y-109331048D01*
X166623714Y-109521524D01*
X166338000Y-109616762D01*
X165861809Y-109616762D01*
X157114857Y-121633810D02*
X157114857Y-120110000D01*
X157876762Y-120871905D02*
X156352952Y-120871905D01*
X157876762Y-118110000D02*
X157876762Y-119252858D01*
X157876762Y-118681429D02*
X155876762Y-118681429D01*
X156162476Y-118871905D01*
X156352952Y-119062381D01*
X156448190Y-119252858D01*
X156067238Y-117348096D02*
X155972000Y-117252858D01*
X155876762Y-117062381D01*
X155876762Y-116586191D01*
X155972000Y-116395715D01*
X156067238Y-116300477D01*
X156257714Y-116205238D01*
X156448190Y-116205238D01*
X156733905Y-116300477D01*
X157876762Y-117443334D01*
X157876762Y-116205238D01*
X155876762Y-115633810D02*
X157876762Y-114967143D01*
X155876762Y-114300476D01*
D12*
X158242000Y-132588000D03*
X221996000Y-107188000D03*
X221996000Y-132588000D03*
D13*
X214884000Y-114808000D03*
D14*
X214884000Y-117348000D03*
X214884000Y-119888000D03*
X214884000Y-122428000D03*
X214884000Y-124968000D03*
D15*
X170180000Y-118110000D03*
D16*
X170180000Y-115570000D03*
X170180000Y-113030000D03*
D15*
X181610000Y-118110000D03*
D16*
X181610000Y-115570000D03*
X181610000Y-113030000D03*
D15*
X204470000Y-118110000D03*
D16*
X204470000Y-115570000D03*
X204470000Y-113030000D03*
D15*
X193040000Y-118110000D03*
D16*
X193040000Y-115570000D03*
X193040000Y-113030000D03*
D17*
X175260000Y-125730000D03*
D18*
X175260000Y-113030000D03*
D17*
X186690000Y-125730000D03*
D18*
X186690000Y-113030000D03*
D17*
X209550000Y-125730000D03*
D18*
X209550000Y-113030000D03*
D17*
X198120000Y-125730000D03*
D18*
X198120000Y-113030000D03*
D12*
X158242000Y-105664000D03*
D19*
X201676000Y-131572000D03*
D20*
X201676000Y-134112000D03*
X199136000Y-131572000D03*
X199136000Y-134112000D03*
X196596000Y-131572000D03*
X196596000Y-134112000D03*
D13*
X220980000Y-114808000D03*
D14*
X220980000Y-117348000D03*
X220980000Y-119888000D03*
X220980000Y-122428000D03*
X220980000Y-124968000D03*
D13*
X227076000Y-114808000D03*
D14*
X227076000Y-117348000D03*
X227076000Y-119888000D03*
X227076000Y-122428000D03*
X227076000Y-124968000D03*
D21*
X160528000Y-123190000D03*
D22*
X160528000Y-118110000D03*
X160528000Y-113030000D03*
D19*
X170688000Y-134112000D03*
D20*
X170688000Y-131572000D03*
X173228000Y-134112000D03*
X173228000Y-131572000D03*
X175768000Y-134112000D03*
X175768000Y-131572000D03*
X178308000Y-134112000D03*
X178308000Y-131572000D03*
X180848000Y-134112000D03*
X180848000Y-131572000D03*
D23*
X205740000Y-128524000D03*
X199136000Y-128524000D03*
X178308000Y-125476000D03*
X185420000Y-136144000D03*
X211836000Y-117348000D03*
X198120000Y-117348000D03*
X167640000Y-115570000D03*
X211328000Y-119888000D03*
X214630000Y-121920000D03*
X179070000Y-121920000D03*
X205994000Y-122936000D03*
D24*
X199136000Y-128524000D02*
X205740000Y-128524000D01*
X178308000Y-128524000D02*
X178308000Y-125476000D01*
X185420000Y-128524000D02*
X178308000Y-128524000D01*
X185420000Y-136144000D02*
X185420000Y-128524000D01*
X211836000Y-112014000D02*
X211836000Y-117348000D01*
X210058000Y-110236000D02*
X211836000Y-112014000D01*
X201168000Y-110236000D02*
X210058000Y-110236000D01*
X201168000Y-117348000D02*
X201168000Y-110236000D01*
X198120000Y-117348000D02*
X201168000Y-117348000D01*
X167640000Y-119126000D02*
X167640000Y-115570000D01*
X169164000Y-120650000D02*
X167640000Y-119126000D01*
X210566000Y-120650000D02*
X169164000Y-120650000D01*
X211328000Y-119888000D02*
X210566000Y-120650000D01*
X179070000Y-122936000D02*
X179070000Y-121920000D01*
X205994000Y-122936000D02*
X179070000Y-122936000D01*
M02*
