M48
;DRILL file {KiCad 4.0.7} date Mon Dec 17 23:28:10 2018
;FORMAT={-:-/ absolute / metric / decimal}
FMAT,2
METRIC,TZ
T1C0.400
T2C1.000
T3C1.016
T4C1.100
T5C1.200
T6C1.300
T7C2.700
%
G90
G05
M71
T1
X167.64Y-115.57
X178.308Y-125.476
X179.07Y-121.92
X185.42Y-136.144
X198.12Y-117.348
X199.136Y-128.524
X205.74Y-128.524
X205.994Y-122.936
X211.328Y-119.888
X211.836Y-117.348
X214.63Y-121.92
T2
X214.884Y-114.808
X214.884Y-117.348
X214.884Y-119.888
X214.884Y-122.428
X214.884Y-124.968
X220.98Y-114.808
X220.98Y-117.348
X220.98Y-119.888
X220.98Y-122.428
X220.98Y-124.968
X227.076Y-114.808
X227.076Y-117.348
X227.076Y-119.888
X227.076Y-122.428
X227.076Y-124.968
T3
X170.688Y-131.572
X170.688Y-134.112
X173.228Y-131.572
X173.228Y-134.112
X175.768Y-131.572
X175.768Y-134.112
X178.308Y-131.572
X178.308Y-134.112
X180.848Y-131.572
X180.848Y-134.112
X196.596Y-131.572
X196.596Y-134.112
X199.136Y-131.572
X199.136Y-134.112
X201.676Y-131.572
X201.676Y-134.112
T4
X170.18Y-113.03
X170.18Y-115.57
X170.18Y-118.11
X181.61Y-113.03
X181.61Y-115.57
X181.61Y-118.11
X193.04Y-113.03
X193.04Y-115.57
X193.04Y-118.11
X204.47Y-113.03
X204.47Y-115.57
X204.47Y-118.11
T5
X175.26Y-113.03
X175.26Y-125.73
X186.69Y-113.03
X186.69Y-125.73
X198.12Y-113.03
X198.12Y-125.73
X209.55Y-113.03
X209.55Y-125.73
T6
X160.528Y-113.03
X160.528Y-118.11
X160.528Y-123.19
T7
X158.242Y-105.664
X158.242Y-132.588
X221.996Y-107.188
X221.996Y-132.588
T0
M30
